<?xml version="1.0" encoding="utf-8"?>
<!-- Generator: Adobe Illustrator 16.0.0, SVG Export Plug-In . SVG Version: 6.00 Build 0)  -->
<!DOCTYPE svg PUBLIC "-//W3C//DTD SVG 1.1//EN" "http://www.w3.org/Graphics/SVG/1.1/DTD/svg11.dtd">
<svg version="1.1" id="Livello_1" xmlns="http://www.w3.org/2000/svg" xmlns:xlink="http://www.w3.org/1999/xlink" x="0px" y="0px"
	 width="1203.413px" height="146.267px" viewBox="22.558 486.377 1203.413 146.267"
	 enable-background="new 22.558 486.377 1203.413 146.267" xml:space="preserve">
<g>
	<path fill="#FFFFFF" d="M99.969,536.833c-0.995,3.481-3.316,4.974-5.802,4.974c-2.984,0-5.801-2.156-5.801-4.808v-1.49
		c0-2.984-4.145-3.979-7.294-4.974c-1.16-0.331-2.321-0.498-3.647-0.498c-10.444,0-24.202,11.106-32.49,23.706
		c-6.796,10.277-11.768,22.379-11.768,33.319c0,8.288,2.818,16.078,9.779,22.046c5.968,5.14,16.246,6.466,26.358,6.466
		c8.786,0,17.405-0.995,22.378-1.161h0.829c5.47-0.166,7.293,1.989,7.293,4.312c0,2.984-3.149,6.465-5.802,6.63
		c-8.953,0.331-16.411,0.828-23.705,0.828c-6.963,0-13.758-0.498-21.384-2.155c-16.909-3.812-26.355-19.228-26.355-36.965
		c0-9.614,2.818-19.894,8.787-29.34c12.266-19.395,27.02-37.796,45.75-37.796h1.989c13.426,0.828,21.384,5.471,21.384,13.427
		C100.468,534.348,100.3,535.507,99.969,536.833z"/>
	<path fill="#FFFFFF" d="M196.944,622.037c-0.663,0-1.491-0.165-2.155-0.828c-10.112-8.619-13.261-17.072-16.577-29.837
		c-0.995-3.979-2.984-5.47-4.807-5.47c-1.823,0-3.647,1.161-4.807,2.486c-9.615,10.443-16.41,17.239-29.175,24.533
		c-4.476,2.486-8.454,3.646-11.936,3.646c-10.111,0-16.246-8.95-16.246-17.736c0-3.149,0.829-6.465,2.653-9.118
		c10.112-15.084,23.374-22.211,36.8-28.512c3.647-1.658,7.294-2.984,10.775-2.984c2.486,0,4.973,0.663,7.128,2.652
		c1.823,1.658,3.315,2.818,4.807,2.818c1.326,0,2.652-0.828,4.475-3.149c0.995-1.161,2.155-1.824,3.481-1.824
		c2.984,0,6.133,2.653,7.459,5.471c5.306,11.936-1.657,40.282,13.925,44.759c1.326,0.331,1.823,1.49,1.823,2.982
		C204.569,615.736,200.757,622.037,196.944,622.037z M154.507,573.302c-0.663,0-1.491,0.332-2.486,0.827
		c-11.438,6.134-17.904,10.608-26.192,20.555c-0.829,0.995-1.161,2.155-1.161,3.481c0,2.818,1.989,5.802,6.631,5.802h0.166
		c7.792-0.166,14.257-11.604,25.86-15.251c0.995-0.331,1.823-3.315,1.823-6.632C159.149,577.943,157.822,573.302,154.507,573.302z"
		/>
	<path fill="#FFFFFF" d="M309.829,619.384c-0.995,0-2.155-0.331-2.984-0.828c-11.771-7.625-10.608-19.727-14.421-33.319
		c-0.663-2.484-2.155-3.48-3.812-3.48c-1.657,0-3.481,1.16-4.641,2.485c-3.481,4.311-8.123,7.294-11.936,13.427
		c-1.326,1.989-3.315,3.149-5.47,3.149c-2.321,0-4.973-1.327-6.963-4.145c-2.321-3.315-3.979-5.14-5.47-8.951
		c-0.829-2.321-1.493-3.316-2.321-3.316c-0.663,0-1.657,0.995-3.149,2.818c-8.287,9.614-9.779,18.234-19.892,25.859
		c-1.657,1.159-4.31,1.987-6.631,1.987c-2.653,0-4.973-0.994-5.305-3.481c-1.159-11.438-2.984-17.901-5.47-28.843
		c-0.995-4.311-1.493-7.956-1.493-11.437c0-4.642,0.829-9.117,2.984-14.421c0.663-1.491,1.823-2.155,3.481-2.155
		c3.979,0,9.614,4.145,9.448,8.619v0.498c-0.165,5.14-0.995,9.282-0.995,13.427c0,3.148,0.332,6.465,1.492,10.443
		c0.995,3.812,2.321,5.305,3.481,5.305c0.497,0,0.995-0.332,1.491-0.827c8.62-10.609,14.919-20.058,17.406-30.335
		c0.498-2.155,3.315-3.149,5.968-3.149c2.486,0,5.139,0.829,5.47,2.653c1.658,7.128,3.316,11.272,4.973,18.4
		c0.663,2.485,1.658,3.481,2.818,3.481c1.989,0,4.475-2.155,6.133-3.481c7.791-5.802,8.122-13.76,13.426-21.882
		c0.828-1.327,2.321-1.823,3.979-1.823c3.481,0,7.791,2.486,8.454,5.803c3.315,16.41,6.465,32.324,15.915,50.724
		c0.331,0.664,0.497,1.327,0.497,1.989C316.293,617.396,312.979,619.384,309.829,619.384z"/>
	<path fill="#FFFFFF" d="M394.536,618.389c-6.63,4.312-17.074,6.135-26.854,6.135c-6.63,0-13.094-0.828-17.901-2.487
		c-14.256-4.641-29.175-11.936-29.175-26.356c0-1.327,0-2.652,0.331-4.144c2.984-15.914,11.769-23.042,24.534-31.163
		c8.453-5.305,16.907-8.951,25.362-8.951c4.642,0,9.283,1.16,14.089,3.647c4.807,2.485,7.128,6.796,7.128,11.272
		c0,3.646-1.491,7.459-4.807,10.609c-9.946,9.78-19.229,8.453-31.495,13.923c-4.973,2.155-8.953,3.149-12.102,3.149
		c-3.481,0-5.967-1.16-7.128-2.818c-0.332-0.496-1.16-1.16-1.823-1.16s-1.326,0.664-1.491,2.486c0,0.663-0.167,1.16-0.167,1.658
		c0,10.774,13.426,15.249,23.706,17.901c5.968,1.492,10.775,2.155,15.747,2.155c5.801,0,11.437-0.828,18.732-2.155
		c0.331,0,0.663-0.165,0.995-0.165c2.486,0,3.647,1.989,3.647,3.812C395.862,616.897,395.365,617.893,394.536,618.389z
		 M374.975,562.361h-0.331c-12.763,0.663-29.174,7.956-38.126,17.57c-0.995,0.994-1.491,2.321-1.491,3.148
		c0,0.994,0.497,1.657,1.491,1.657c0.498,0,1.161-0.166,1.989-0.496c8.951-3.646,25.86-3.315,39.121-13.261
		c1.491-0.995,1.989-2.321,1.989-3.647C379.616,564.847,377.298,562.195,374.975,562.361z"/>
	<path fill="#FFFFFF" d="M451.56,575.126c-0.497,0-1.159,0-1.822-0.331c-1.658-0.663-3.315-1.16-4.808-1.16
		c-1.823,0-3.481,0.663-5.138,3.148c-7.295,10.94-4.477,20.226-9.45,32.324c-1.159,2.653-3.646,3.979-6.133,3.979
		s-4.973-1.492-5.801-4.478c-1.989-7.955-3.481-12.101-5.968-19.891c-2.818-8.62-9.282-15.084-9.282-21.882
		c0-0.827,0.165-1.656,0.331-2.485c0.663-2.321,3.149-3.647,5.638-3.647c1.326,0,2.817,0.331,3.812,1.16
		c8.787,6.631,6.962,8.785,8.951,18.399c0.331,1.327,1.491,2.486,2.984,2.486c0.995,0,2.156-0.665,2.984-2.486
		c3.647-7.956,0.663-17.073,11.438-19.395c1.657-0.331,3.314-0.497,4.807-0.497c4.145,0,7.792,1.16,10.609,3.979
		c0.995,0.995,1.491,2.653,1.491,4.475C456.201,571.976,454.71,575.126,451.56,575.126z"/>
	<path fill="#FFFFFF" d="M550.026,622.037c-0.664,0-1.492-0.165-2.155-0.828c-10.111-8.619-13.262-17.072-16.576-29.837
		c-0.995-3.979-2.984-5.47-4.808-5.47c-1.822,0-3.646,1.161-4.807,2.486c-9.615,10.443-16.411,17.239-29.175,24.533
		c-4.476,2.486-8.455,3.646-11.935,3.646c-10.111,0-16.246-8.95-16.246-17.736c0-3.149,0.829-6.465,2.652-9.118
		c10.112-15.084,23.374-22.211,36.801-28.512c3.646-1.658,7.294-2.984,10.775-2.984c2.485,0,4.974,0.663,7.128,2.652
		c1.824,1.658,3.316,2.818,4.808,2.818c1.327,0,2.651-0.828,4.476-3.149c0.994-1.161,2.154-1.824,3.481-1.824
		c2.982,0,6.133,2.653,7.459,5.471c5.306,11.936-1.658,40.282,13.925,44.759c1.326,0.331,1.822,1.49,1.822,2.982
		C557.65,615.736,553.838,622.037,550.026,622.037z M507.589,573.302c-0.663,0-1.492,0.332-2.486,0.827
		c-11.438,6.134-17.902,10.608-26.19,20.555c-0.829,0.995-1.161,2.155-1.161,3.481c0,2.818,1.989,5.802,6.631,5.802h0.167
		c7.792-0.166,14.256-11.604,25.86-15.251c0.994-0.331,1.823-3.315,1.823-6.632C512.229,577.943,510.905,573.302,507.589,573.302z"
		/>
	<path fill="#FFFFFF" d="M633.406,581.258h-1.161c-3.979-0.165,0.995,7.46-19.562,8.951c-1.823,0.166-3.646,1.161-3.646,2.982
		c0,6.135,1.658,10.112,1.658,16.577c0,3.979-1.327,5.139-3.316,5.139c-1.658,0-3.812-0.993-5.638-1.822
		c-6.962-3.316-6.796-13.925-7.956-19.562c-0.497-2.153-2.154-3.314-4.311-3.646c-1.159-0.168-2.153-0.332-3.148-0.332
		c-7.791,0-14.753,4.642-23.042,7.956c-0.496,0.167-1.159,0.331-1.657,0.331c-4.31,0-8.786-5.471-8.786-9.613
		c0-1.327,0.331-2.486,1.16-3.316c11.438-12.433,25.195-29.672,38.458-49.066c0.994-1.326,1.159-2.652,1.159-4.144
		c0-1.159-0.165-2.321-0.165-3.48c0-2.155,0.497-4.311,3.979-6.3c2.153-1.326,4.973-1.988,7.626-1.988
		c4.144,0,7.955,1.822,7.955,7.128v0.828c-0.994,14.256-3.812,23.041-3.812,36.8c0,1.989,0,4.145,0.167,6.299
		c0.165,1.658,0.663,3.316,2.321,3.647c0.498,0.167,1.161,0.167,1.658,0.167c4.31,0,7.956-3.315,11.935-3.315
		c0.663,0,1.491,0.167,2.321,0.498c7.295,2.653,9.78,5.305,9.78,6.962C637.383,580.43,635.725,581.258,633.406,581.258z
		 M597.434,557.059c-0.496-3.315-1.326-4.311-2.154-4.311c-0.827,0-1.822,1.326-2.485,1.989c-5.471,5.47-9.45,10.443-15.251,18.566
		c-0.167,0.331-0.331,0.663-0.331,0.995c0,1.161,0.828,2.486,1.989,2.652c2.155,0.166,3.979,0.332,5.801,0.332
		c3.316,0,6.3-0.332,9.45-0.664c1.159-0.165,2.485-0.165,2.651-1.326c0.665-3.316,0.995-6.466,0.995-9.946
		C598.098,562.858,597.931,560.207,597.434,557.059z"/>
	<path fill="#FFFFFF" d="M709.161,598.498c-8.29,13.262-19.728,22.047-30.834,31.163c-2.484,2.153-6.132,2.982-9.78,2.982
		c-7.128,0-14.42-3.646-14.42-8.783v-5.969c0-16.411-1.658-27.351-2.321-45.253c-0.498-13.095-4.312-20.555-10.28-32.158
		c-1.656-3.315-2.65-6.964-2.65-10.277c0-5.14,2.322-9.449,7.294-10.94c6.963-1.989,12.763-2.818,18.235-2.818
		c11.104,0,20.222,3.812,31.494,10.774c16.079,9.78,23.539,23.87,23.539,39.121C719.438,576.782,715.79,587.89,709.161,598.498z
		 M702.53,547.441c-8.785-9.283-18.566-15.747-33.153-18.234c-2.322-0.331-4.143-0.663-5.47-0.663c-3.15,0-4.144,1.16-4.144,4.144
		c0,0.995,0.165,2.155,0.331,3.481c3.314,29.506,4.64,46.578,4.64,76.253c0,3.482,3.979,5.967,7.957,5.967
		c1.49,0,2.985-0.498,4.31-1.326c13.262-9.116,19.727-18.897,28.845-33.485c2.153-3.48,3.814-9.449,3.814-15.913
		C709.658,560.538,707.668,552.911,702.53,547.441z"/>
	<path fill="#FFFFFF" d="M801.658,623.861c-0.994,0-1.989-0.331-2.652-0.828c-5.469-4.311-7.293-14.587-11.437-23.871
		c-1.491-3.48-2.818-5.636-4.144-5.636c-0.995,0-1.987,1.16-3.314,3.646c-5.801,11.272-11.438,19.064-21.716,19.064
		c-0.663,0-1.491-0.165-2.154-0.165c-14.918-1.491-19.395-17.073-19.395-34.978c0-9.615,1.327-19.893,2.983-28.677
		c0.332-1.824,2.487-2.653,4.975-2.653c3.646,0,7.626,1.823,7.626,5.471c0,0.332,0,0.662-0.166,1.159
		c-1.161,5.14-2.487,12.267-2.487,19.892c0,6.797,0.995,14.257,3.979,21.384c1.492,3.812,3.647,5.14,5.638,5.14
		c2.817,0,5.469-2.321,7.294-4.642c5.801-7.459,10.608-15.582,10.608-26.191c0-1.16-0.166-2.486-0.166-3.647v-0.331
		c-0.166-2.653,3.978-4.973,7.625-4.973c2.985,0,5.801,1.325,6.796,4.807c4.807,17.073,9.78,37.796,16.411,42.768
		c2.153,1.658,2.983,3.481,2.983,5.139C810.941,620.047,805.637,623.861,801.658,623.861z"/>
	<path fill="#FFFFFF" d="M916.535,619.384c-0.995,0-2.155-0.331-2.984-0.828c-11.769-7.625-10.607-19.727-14.421-33.319
		c-0.662-2.484-2.155-3.48-3.813-3.48c-1.657,0-3.481,1.16-4.641,2.485c-3.48,4.311-8.121,7.294-11.935,13.427
		c-1.326,1.989-3.315,3.149-5.47,3.149c-2.321,0-4.974-1.327-6.963-4.145c-2.321-3.315-3.979-5.14-5.47-8.951
		c-0.828-2.321-1.491-3.316-2.322-3.316c-0.663,0-1.657,0.995-3.148,2.818c-8.29,9.614-9.781,18.234-19.893,25.859
		c-1.658,1.159-4.311,1.987-6.63,1.987c-2.653,0-4.975-0.994-5.305-3.481c-1.161-11.438-2.985-17.901-5.47-28.843
		c-0.996-4.311-1.491-7.956-1.491-11.437c0-4.642,0.828-9.117,2.983-14.421c0.664-1.491,1.825-2.155,3.48-2.155
		c3.979,0,9.614,4.145,9.448,8.619v0.498c-0.164,5.14-0.993,9.282-0.993,13.427c0,3.148,0.331,6.465,1.49,10.443
		c0.995,3.812,2.321,5.305,3.481,5.305c0.498,0,0.995-0.332,1.491-0.827c8.619-10.609,14.919-20.058,17.405-30.335
		c0.497-2.155,3.315-3.149,5.967-3.149c2.487,0,5.14,0.829,5.471,2.653c1.658,7.128,3.314,11.272,4.975,18.4
		c0.662,2.485,1.656,3.481,2.816,3.481c1.989,0,4.477-2.155,6.133-3.481c7.792-5.802,8.123-13.76,13.427-21.882
		c0.829-1.327,2.322-1.823,3.979-1.823c3.48,0,7.791,2.486,8.453,5.803c3.316,16.41,6.465,32.324,15.914,50.724
		c0.331,0.664,0.497,1.327,0.497,1.989C922.999,617.396,919.687,619.384,916.535,619.384z"/>
	<path fill="#FFFFFF" d="M1026.274,619.384c-0.995,0-2.154-0.331-2.983-0.828c-11.771-7.625-10.609-19.727-14.422-33.319
		c-0.662-2.484-2.155-3.48-3.812-3.48c-1.658,0-3.481,1.16-4.643,2.485c-3.479,4.311-8.121,7.294-11.933,13.427
		c-1.327,1.989-3.316,3.149-5.471,3.149c-2.322,0-4.974-1.327-6.963-4.145c-2.321-3.315-3.979-5.14-5.471-8.951
		c-0.827-2.321-1.49-3.316-2.321-3.316c-0.664,0-1.658,0.995-3.148,2.818c-8.289,9.614-9.781,18.234-19.893,25.859
		c-1.658,1.159-4.311,1.987-6.631,1.987c-2.651,0-4.974-0.994-5.304-3.481c-1.161-11.438-2.984-17.901-5.47-28.843
		c-0.996-4.311-1.491-7.956-1.491-11.437c0-4.642,0.828-9.117,2.984-14.421c0.663-1.491,1.824-2.155,3.48-2.155
		c3.978,0,9.613,4.145,9.448,8.619v0.498c-0.166,5.14-0.995,9.282-0.995,13.427c0,3.148,0.331,6.465,1.491,10.443
		c0.995,3.812,2.322,5.305,3.48,5.305c0.499,0,0.996-0.332,1.492-0.827c8.619-10.609,14.919-20.058,17.406-30.335
		c0.496-2.155,3.313-3.149,5.966-3.149c2.487,0,5.14,0.829,5.47,2.653c1.658,7.128,3.315,11.272,4.975,18.4
		c0.663,2.485,1.658,3.481,2.818,3.481c1.989,0,4.475-2.155,6.132-3.481c7.791-5.802,8.122-13.76,13.427-21.882
		c0.828-1.327,2.322-1.823,3.979-1.823c3.481,0,7.791,2.486,8.453,5.803c3.316,16.41,6.466,32.324,15.915,50.724
		c0.331,0.664,0.497,1.327,0.497,1.989C1032.739,617.396,1029.425,619.384,1026.274,619.384z"/>
	<path fill="#FFFFFF" d="M1050.641,536.502c-1.49,0.331-2.818,0.497-3.978,0.497c-7.626,0-12.599-4.642-15.914-9.946
		c-0.497-0.828-0.664-1.491-0.664-2.321c0-2.155,1.825-4.31,5.969-4.31c0.497,0,0.995,0.166,1.658,0.166
		c6.796,0.827,11.272,2.653,16.411,6.465c1.491,0.995,1.989,2.321,1.989,3.647C1056.111,533.353,1053.458,536.004,1050.641,536.502z
		 M1053.625,616.234c-2.323,0-4.478-0.498-5.471-1.658c-5.471-5.968-8.62-12.266-8.952-18.897
		c-0.331-7.128-0.331-12.599-0.331-18.234v-5.969c0-3.646-0.167-7.624-0.167-12.1v-0.165c0-2.817,1.825-3.979,3.979-3.979
		c3.979,0,9.615,3.647,9.448,8.288v0.332c-0.165,8.123-2.154,14.589-2.154,21.053c0,3.979,0.663,7.792,2.652,12.267
		c2.487,5.471,5.14,7.958,8.952,12.434c0.663,0.828,0.994,1.657,0.994,2.321C1062.576,614.578,1057.936,616.234,1053.625,616.234z"
		/>
	<path fill="#FFFFFF" d="M1146.619,618.389c-6.632,4.312-17.072,6.135-26.854,6.135c-6.631,0-13.097-0.828-17.903-2.487
		c-14.257-4.641-29.173-11.936-29.173-26.356c0-1.327,0-2.652,0.331-4.144c2.983-15.914,11.769-23.042,24.531-31.163
		c8.455-5.305,16.91-8.951,25.363-8.951c4.641,0,9.283,1.16,14.09,3.647s7.128,6.796,7.128,11.272c0,3.646-1.491,7.459-4.806,10.609
		c-9.947,9.78-19.229,8.453-31.496,13.923c-4.974,2.155-8.952,3.149-12.101,3.149c-3.481,0-5.969-1.16-7.129-2.818
		c-0.331-0.496-1.161-1.16-1.824-1.16c-0.664,0-1.327,0.664-1.49,2.486c0,0.663-0.166,1.16-0.166,1.658
		c0,10.774,13.426,15.249,23.703,17.901c5.969,1.492,10.773,2.155,15.747,2.155c5.804,0,11.439-0.828,18.733-2.155
		c0.331,0,0.663-0.165,0.994-0.165c2.487,0,3.648,1.989,3.648,3.812C1147.946,616.897,1147.448,617.893,1146.619,618.389z
		 M1127.059,562.361h-0.332c-12.763,0.663-29.176,7.956-38.127,17.57c-0.996,0.994-1.49,2.321-1.49,3.148
		c0,0.994,0.495,1.657,1.49,1.657c0.497,0,1.16-0.166,1.988-0.496c8.951-3.646,25.858-3.315,39.122-13.261
		c1.491-0.995,1.989-2.321,1.989-3.647C1131.7,564.847,1129.379,562.195,1127.059,562.361z"/>
	<path fill="#FFFFFF" d="M1205.797,563.854c-0.663,2.817-5.966,5.802-8.951,5.802c-1.16,0-1.988-0.332-1.988-1.492v-0.331
		c0-0.497,0.166-0.995,0.166-1.49c0-2.984-1.825-4.476-3.814-4.476c-0.497,0-1.16,0.166-1.822,0.498
		c-3.814,1.823-6.797,4.145-11.936,5.969c-0.994,0.332-1.491,1.492-1.491,2.653c0,0.995,0.331,2.155,0.994,2.818
		c9.946,9.612,15.582,14.42,23.87,24.864c1.989,2.652,2.983,5.304,2.983,8.122c0,3.315-1.326,6.3-3.977,8.785
		c-4.808,4.476-20.061,10.941-30.007,10.941c-2.484,0-4.807-0.498-6.299-1.491c-3.481-2.155-4.808-4.807-4.808-6.962
		c0-2.817,2.323-5.139,5.638-5.139c0.996,0,1.989,0.166,3.151,0.663c1.823,0.827,3.812,1.161,5.636,1.161
		c4.145,0,8.455-1.658,12.764-4.144c1.989-1.162,2.818-2.485,2.818-3.978c0-2.155-1.492-4.478-3.316-6.964
		c-11.604-15.914-22.876-16.078-25.857-24.864c-0.664-1.823-0.996-3.647-0.996-5.471c0-4.144,1.988-7.624,5.968-9.448
		c8.288-3.646,21.549-11.603,28.843-11.603c0.829,0,1.492,0,1.989,0.164c8.29,2.321,10.941,6.134,10.941,11.272
		C1206.295,561.035,1206.129,562.361,1205.797,563.854z"/>
</g>
<g>
	<path fill="#F4D040" d="M1215.692,582.514c-8.474,14.086-11.734,27.685-32.562,15.155l-91.809-55.222
		c-20.827-12.527-11.258-22.33-2.785-36.417l0,0c8.474-14.088,12.649-27.133,33.476-14.605l91.806,55.222
		C1234.648,559.174,1224.169,568.426,1215.692,582.514L1215.692,582.514z"/>
	
		<text transform="matrix(0.8569 0.5154 -0.5154 0.8569 1089.9316 526.8037)" fill="#787878" font-family="'HelveticaNeue-Bold'" font-size="48.7827">BETA</text>
</g>
</svg>
