<?xml version="1.0" encoding="utf-8"?>
<!-- Generator: Adobe Illustrator 17.1.0, SVG Export Plug-In . SVG Version: 6.00 Build 0)  -->
<!DOCTYPE svg PUBLIC "-//W3C//DTD SVG 1.1//EN" "http://www.w3.org/Graphics/SVG/1.1/DTD/svg11.dtd" [
	<!ENTITY ns_flows "http://ns.adobe.com/Flows/1.0/">
	<!ENTITY ns_extend "http://ns.adobe.com/Extensibility/1.0/">
	<!ENTITY ns_ai "http://ns.adobe.com/AdobeIllustrator/10.0/">
	<!ENTITY ns_graphs "http://ns.adobe.com/Graphs/1.0/">
	<!ENTITY ns_vars "http://ns.adobe.com/Variables/1.0/">
	<!ENTITY ns_imrep "http://ns.adobe.com/ImageReplacement/1.0/">
	<!ENTITY ns_sfw "http://ns.adobe.com/SaveForWeb/1.0/">
	<!ENTITY ns_custom "http://ns.adobe.com/GenericCustomNamespace/1.0/">
	<!ENTITY ns_adobe_xpath "http://ns.adobe.com/XPath/1.0/">
]>
<svg version="1.1" id="Livello_1" xmlns:x="&ns_extend;" xmlns:i="&ns_ai;" xmlns:graph="&ns_graphs;"
	 xmlns="http://www.w3.org/2000/svg" xmlns:xlink="http://www.w3.org/1999/xlink" xmlns:a="http://ns.adobe.com/AdobeSVGViewerExtensions/3.0/"
	 x="0px" y="0px" viewBox="0 0 851 98" enable-background="new 0 0 851 98" xml:space="preserve">
<metadata>
	<sfw  xmlns="&ns_sfw;">
		<slices></slices>
		<sliceSourceBounds  height="80.255" width="817.551" y="-179.408" x="15.579" bottomLeftOrigin="true"></sliceSourceBounds>
		<optimizationSettings>
			<targetSettings  targetSettingsID="0" fileFormat="PNG24Format">
				<PNG24Format  transparency="true" matteColor="#FFFFFF" interlaced="true" noMatteColor="false" filtered="false">
					</PNG24Format>
			</targetSettings>
		</optimizationSettings>
	</sfw>
</metadata>
<g>
	<path fill="#FFFFFF" d="M69.044,22.235c-0.687,2.404-2.29,3.435-4.007,3.435c-2.061,0-4.007-1.489-4.007-3.32v-1.03
		c0-2.061-2.862-2.748-5.038-3.435c-0.801-0.229-1.603-0.344-2.519-0.344c-7.213,0-16.715,7.671-22.439,16.372
		c-4.694,7.098-8.128,15.456-8.128,23.012c0,5.724,1.946,11.105,6.754,15.227c4.122,3.549,11.22,4.465,18.204,4.465
		c6.068,0,12.021-0.687,15.456-0.802h0.573c3.778-0.114,5.037,1.374,5.037,2.978c0,2.061-2.175,4.465-4.007,4.579
		c-6.183,0.229-11.334,0.572-16.372,0.572c-4.809,0-9.502-0.344-14.769-1.488c-11.678-2.633-18.203-13.28-18.203-25.53
		c0-6.641,1.946-13.739,6.068-20.264c8.472-13.395,18.661-26.103,31.598-26.103h1.374c9.273,0.572,14.769,3.778,14.769,9.273
		C69.388,20.518,69.273,21.319,69.044,22.235z"/>
	<path fill="#FFFFFF" d="M136.02,81.081c-0.458,0-1.03-0.114-1.488-0.572c-6.984-5.953-9.159-11.792-11.449-20.607
		c-0.687-2.748-2.061-3.778-3.32-3.778s-2.519,0.802-3.32,1.717c-6.641,7.213-11.334,11.907-20.15,16.944
		c-3.091,1.718-5.839,2.519-8.243,2.519c-6.983,0-11.22-6.182-11.22-12.25c0-2.175,0.573-4.465,1.832-6.297
		c6.984-10.418,16.143-15.341,25.416-19.692c2.519-1.145,5.038-2.061,7.442-2.061c1.717,0,3.435,0.458,4.923,1.832
		c1.259,1.145,2.29,1.946,3.32,1.946c0.916,0,1.832-0.572,3.091-2.175c0.687-0.802,1.488-1.26,2.404-1.26
		c2.061,0,4.236,1.832,5.152,3.778c3.664,8.243-1.145,27.821,9.617,30.912c0.916,0.229,1.259,1.03,1.259,2.061
		C141.286,76.73,138.653,81.081,136.02,81.081z M106.711,47.422c-0.458,0-1.03,0.229-1.717,0.572
		c-7.9,4.236-12.365,7.327-18.089,14.196c-0.573,0.687-0.802,1.488-0.802,2.404c0,1.946,1.374,4.007,4.58,4.007h0.115
		c5.381-0.114,9.846-8.014,17.86-10.533c0.687-0.229,1.259-2.29,1.259-4.58C109.917,50.628,109,47.422,106.711,47.422z"/>
	<path fill="#FFFFFF" d="M213.984,79.249c-0.687,0-1.488-0.229-2.061-0.572c-8.129-5.266-7.327-13.624-9.96-23.012
		c-0.458-1.717-1.488-2.404-2.633-2.404s-2.404,0.801-3.206,1.717c-2.404,2.977-5.61,5.037-8.243,9.273
		c-0.916,1.374-2.29,2.175-3.778,2.175c-1.603,0-3.435-0.916-4.809-2.862c-1.603-2.29-2.748-3.549-3.778-6.183
		c-0.573-1.603-1.031-2.29-1.603-2.29c-0.458,0-1.145,0.687-2.175,1.946c-5.724,6.64-6.754,12.594-13.738,17.86
		c-1.145,0.801-2.977,1.373-4.58,1.373c-1.832,0-3.435-0.687-3.664-2.404c-0.801-7.899-2.061-12.364-3.778-19.92
		c-0.687-2.977-1.031-5.495-1.031-7.899c0-3.206,0.573-6.297,2.061-9.96c0.458-1.03,1.259-1.488,2.404-1.488
		c2.748,0,6.64,2.862,6.525,5.953v0.344c-0.114,3.549-0.687,6.411-0.687,9.273c0,2.175,0.229,4.465,1.03,7.212
		c0.687,2.633,1.603,3.664,2.404,3.664c0.343,0,0.687-0.229,1.03-0.572c5.953-7.327,10.304-13.853,12.021-20.951
		c0.344-1.488,2.29-2.175,4.122-2.175c1.717,0,3.549,0.573,3.778,1.832c1.145,4.923,2.29,7.785,3.435,12.708
		c0.458,1.717,1.145,2.404,1.946,2.404c1.374,0,3.091-1.488,4.236-2.404c5.381-4.007,5.61-9.502,9.273-15.112
		c0.572-0.916,1.603-1.259,2.748-1.259c2.404,0,5.381,1.717,5.839,4.007c2.29,11.334,4.465,22.325,10.991,35.033
		c0.229,0.458,0.343,0.916,0.343,1.374C218.449,77.876,216.16,79.249,213.984,79.249z"/>
	<path fill="#FFFFFF" d="M272.487,78.562c-4.579,2.977-11.792,4.236-18.547,4.236c-4.579,0-9.044-0.572-12.364-1.718
		c-9.846-3.205-20.15-8.243-20.15-18.203c0-0.916,0-1.832,0.229-2.862c2.061-10.991,8.128-15.914,16.944-21.523
		c5.838-3.664,11.677-6.182,17.516-6.182c3.206,0,6.412,0.801,9.731,2.519c3.32,1.717,4.923,4.694,4.923,7.785
		c0,2.519-1.03,5.152-3.32,7.327c-6.869,6.755-13.281,5.839-21.752,9.617c-3.435,1.488-6.183,2.175-8.358,2.175
		c-2.404,0-4.121-0.801-4.923-1.946c-0.229-0.343-0.801-0.801-1.259-0.801s-0.916,0.458-1.03,1.717c0,0.458-0.115,0.801-0.115,1.145
		c0,7.441,9.273,10.532,16.372,12.364c4.122,1.03,7.442,1.488,10.876,1.488c4.007,0,7.899-0.572,12.937-1.488
		c0.229,0,0.458-0.114,0.687-0.114c1.717,0,2.519,1.374,2.519,2.633C273.403,77.532,273.06,78.219,272.487,78.562z M258.978,39.866
		h-0.229c-8.815,0.458-20.149,5.495-26.332,12.135c-0.687,0.687-1.03,1.603-1.03,2.175c0,0.687,0.343,1.145,1.03,1.145
		c0.344,0,0.802-0.115,1.374-0.343c6.182-2.519,17.86-2.29,27.019-9.159c1.03-0.687,1.374-1.603,1.374-2.519
		C262.183,41.583,260.581,39.751,258.978,39.866z"/>
	<path fill="#FFFFFF" d="M311.871,48.682c-0.343,0-0.801,0-1.259-0.229c-1.145-0.458-2.29-0.801-3.32-0.801
		c-1.259,0-2.404,0.458-3.549,2.175c-5.038,7.556-3.091,13.968-6.526,22.325c-0.801,1.832-2.519,2.748-4.236,2.748
		s-3.435-1.031-4.007-3.092c-1.374-5.495-2.404-8.357-4.122-13.738c-1.946-5.953-6.411-10.418-6.411-15.112
		c0-0.572,0.114-1.145,0.229-1.717c0.458-1.603,2.175-2.519,3.893-2.519c0.916,0,1.946,0.229,2.633,0.801
		c6.068,4.58,4.808,6.068,6.182,12.708c0.229,0.916,1.03,1.717,2.061,1.717c0.687,0,1.489-0.458,2.061-1.717
		c2.519-5.495,0.458-11.792,7.899-13.395c1.145-0.229,2.29-0.343,3.32-0.343c2.862,0,5.381,0.801,7.327,2.748
		c0.687,0.687,1.03,1.832,1.03,3.091C315.076,46.506,314.046,48.682,311.871,48.682z"/>
	<path fill="#FFFFFF" d="M379.876,81.081c-0.458,0-1.03-0.114-1.488-0.572c-6.984-5.953-9.159-11.792-11.449-20.607
		c-0.687-2.748-2.061-3.778-3.32-3.778s-2.519,0.802-3.32,1.717c-6.641,7.213-11.334,11.907-20.15,16.944
		c-3.091,1.718-5.839,2.519-8.243,2.519c-6.983,0-11.22-6.182-11.22-12.25c0-2.175,0.573-4.465,1.832-6.297
		c6.984-10.418,16.143-15.341,25.416-19.692c2.519-1.145,5.038-2.061,7.442-2.061c1.717,0,3.435,0.458,4.923,1.832
		c1.259,1.145,2.29,1.946,3.32,1.946c0.916,0,1.832-0.572,3.091-2.175c0.687-0.802,1.488-1.26,2.404-1.26
		c2.061,0,4.236,1.832,5.152,3.778c3.664,8.243-1.145,27.821,9.617,30.912c0.916,0.229,1.259,1.03,1.259,2.061
		C385.142,76.73,382.509,81.081,379.876,81.081z M350.567,47.422c-0.458,0-1.03,0.229-1.717,0.572
		c-7.9,4.236-12.365,7.327-18.089,14.196c-0.573,0.687-0.802,1.488-0.802,2.404c0,1.946,1.374,4.007,4.58,4.007h0.115
		c5.381-0.114,9.846-8.014,17.86-10.533c0.687-0.229,1.259-2.29,1.259-4.58C353.773,50.628,352.857,47.422,350.567,47.422z"/>
	<path fill="#FFFFFF" d="M437.463,52.917h-0.802c-2.748-0.114,0.687,5.152-13.51,6.182c-1.259,0.115-2.519,0.802-2.519,2.061
		c0,4.236,1.145,6.984,1.145,11.449c0,2.748-0.916,3.549-2.29,3.549c-1.145,0-2.633-0.687-3.893-1.259
		c-4.809-2.29-4.694-9.617-5.495-13.51c-0.344-1.488-1.488-2.29-2.977-2.519c-0.801-0.115-1.488-0.229-2.175-0.229
		c-5.381,0-10.189,3.206-15.914,5.495c-0.343,0.115-0.801,0.229-1.145,0.229c-2.977,0-6.068-3.778-6.068-6.64
		c0-0.916,0.229-1.717,0.801-2.29c7.899-8.586,17.402-20.493,26.561-33.888c0.687-0.916,0.801-1.832,0.801-2.862
		c0-0.801-0.114-1.603-0.114-2.404c0-1.488,0.343-2.977,2.748-4.351c1.488-0.916,3.435-1.374,5.267-1.374
		c2.862,0,5.495,1.259,5.495,4.923v0.572c-0.687,9.846-2.633,15.914-2.633,25.416c0,1.374,0,2.862,0.115,4.351
		c0.114,1.145,0.458,2.29,1.603,2.519c0.344,0.115,0.802,0.115,1.145,0.115c2.977,0,5.495-2.29,8.243-2.29
		c0.458,0,1.03,0.115,1.603,0.344c5.038,1.832,6.755,3.664,6.755,4.809C440.21,52.345,439.065,52.917,437.463,52.917z
		 M412.619,36.203c-0.343-2.29-0.916-2.977-1.488-2.977s-1.259,0.916-1.717,1.374c-3.778,3.778-6.526,7.213-10.533,12.823
		c-0.115,0.229-0.229,0.458-0.229,0.687c0,0.802,0.572,1.717,1.374,1.832c1.489,0.114,2.748,0.229,4.007,0.229
		c2.29,0,4.351-0.229,6.526-0.458c0.801-0.114,1.717-0.114,1.832-0.916c0.458-2.29,0.687-4.465,0.687-6.869
		C413.077,40.209,412.962,38.378,412.619,36.203z"/>
	<path fill="#FFFFFF" d="M489.783,64.824c-5.725,9.159-13.624,15.227-21.295,21.523c-1.717,1.488-4.235,2.061-6.755,2.061
		c-4.923,0-9.96-2.519-9.96-6.067v-4.122c0-11.334-1.145-18.89-1.603-31.254c-0.344-9.044-2.977-14.196-7.099-22.21
		c-1.145-2.29-1.831-4.809-1.831-7.098c0-3.549,1.603-6.526,5.037-7.556c4.809-1.374,8.815-1.946,12.594-1.946
		c7.67,0,13.967,2.633,21.752,7.441c11.105,6.755,16.257,16.486,16.257,27.019C496.881,49.826,494.362,57.497,489.783,64.824z
		 M485.204,29.562c-6.068-6.412-12.823-10.876-22.897-12.594c-1.604-0.229-2.862-0.458-3.778-0.458
		c-2.176,0-2.862,0.801-2.862,2.862c0,0.687,0.114,1.488,0.229,2.404c2.289,20.378,3.205,32.17,3.205,52.664
		c0,2.404,2.748,4.121,5.495,4.121c1.03,0,2.062-0.344,2.977-0.916c9.159-6.296,13.624-13.051,19.921-23.126
		c1.488-2.404,2.634-6.526,2.634-10.991C490.127,38.607,488.753,33.34,485.204,29.562z"/>
	<path fill="#FFFFFF" d="M553.667,82.341c-0.687,0-1.374-0.229-1.832-0.572c-3.777-2.977-5.037-10.075-7.899-16.486
		c-1.03-2.404-1.946-3.893-2.862-3.893c-0.687,0-1.373,0.801-2.289,2.519c-4.007,7.785-7.899,13.166-14.998,13.166
		c-0.458,0-1.03-0.114-1.488-0.114c-10.304-1.03-13.395-11.792-13.395-24.157c0-6.641,0.916-13.739,2.061-19.806
		c0.229-1.26,1.718-1.832,3.435-1.832c2.519,0,5.267,1.259,5.267,3.778c0,0.229,0,0.458-0.114,0.801
		c-0.802,3.549-1.718,8.472-1.718,13.738c0,4.694,0.687,9.846,2.748,14.769c1.03,2.633,2.519,3.549,3.893,3.549
		c1.946,0,3.777-1.603,5.037-3.206c4.007-5.152,7.327-10.762,7.327-18.089c0-0.801-0.114-1.717-0.114-2.519v-0.229
		c-0.115-1.832,2.747-3.435,5.266-3.435c2.062,0,4.007,0.916,4.694,3.32c3.32,11.792,6.755,26.103,11.334,29.538
		c1.488,1.145,2.061,2.404,2.061,3.549C560.078,79.707,556.415,82.341,553.667,82.341z"/>
	<path fill="#FFFFFF" d="M633.007,79.249c-0.687,0-1.488-0.229-2.061-0.572c-8.129-5.266-7.327-13.624-9.961-23.012
		c-0.457-1.717-1.488-2.404-2.633-2.404s-2.404,0.801-3.206,1.717c-2.403,2.977-5.609,5.037-8.242,9.273
		c-0.916,1.374-2.29,2.175-3.778,2.175c-1.603,0-3.435-0.916-4.809-2.862c-1.603-2.29-2.748-3.549-3.778-6.183
		c-0.572-1.603-1.03-2.29-1.603-2.29c-0.458,0-1.145,0.687-2.175,1.946c-5.725,6.64-6.755,12.594-13.739,17.86
		c-1.145,0.801-2.977,1.373-4.579,1.373c-1.832,0-3.435-0.687-3.663-2.404c-0.802-7.899-2.062-12.364-3.778-19.92
		c-0.688-2.977-1.03-5.495-1.03-7.899c0-3.206,0.572-6.297,2.061-9.96c0.458-1.03,1.26-1.488,2.404-1.488
		c2.747,0,6.64,2.862,6.525,5.953v0.344c-0.114,3.549-0.687,6.411-0.687,9.273c0,2.175,0.229,4.465,1.03,7.212
		c0.687,2.633,1.603,3.664,2.404,3.664c0.344,0,0.687-0.229,1.03-0.572c5.953-7.327,10.304-13.853,12.021-20.951
		c0.343-1.488,2.289-2.175,4.121-2.175c1.718,0,3.549,0.573,3.778,1.832c1.145,4.923,2.289,7.785,3.435,12.708
		c0.458,1.717,1.145,2.404,1.946,2.404c1.374,0,3.091-1.488,4.235-2.404c5.381-4.007,5.61-9.502,9.273-15.112
		c0.573-0.916,1.604-1.259,2.748-1.259c2.404,0,5.381,1.717,5.839,4.007c2.29,11.334,4.465,22.325,10.991,35.033
		c0.229,0.458,0.343,0.916,0.343,1.374C637.472,77.876,635.183,79.249,633.007,79.249z"/>
	<path fill="#FFFFFF" d="M708.798,79.249c-0.687,0-1.488-0.229-2.061-0.572c-8.129-5.266-7.327-13.624-9.961-23.012
		c-0.457-1.717-1.488-2.404-2.633-2.404s-2.404,0.801-3.206,1.717c-2.403,2.977-5.609,5.037-8.242,9.273
		c-0.916,1.374-2.29,2.175-3.778,2.175c-1.603,0-3.435-0.916-4.809-2.862c-1.603-2.29-2.748-3.549-3.778-6.183
		c-0.572-1.603-1.03-2.29-1.603-2.29c-0.458,0-1.145,0.687-2.175,1.946c-5.725,6.64-6.755,12.594-13.739,17.86
		c-1.145,0.801-2.977,1.373-4.579,1.373c-1.832,0-3.435-0.687-3.663-2.404c-0.802-7.899-2.062-12.364-3.778-19.92
		c-0.688-2.977-1.03-5.495-1.03-7.899c0-3.206,0.572-6.297,2.061-9.96c0.458-1.03,1.26-1.488,2.404-1.488
		c2.747,0,6.64,2.862,6.525,5.953v0.344c-0.114,3.549-0.687,6.411-0.687,9.273c0,2.175,0.229,4.465,1.03,7.212
		c0.687,2.633,1.603,3.664,2.404,3.664c0.344,0,0.687-0.229,1.03-0.572c5.953-7.327,10.304-13.853,12.021-20.951
		c0.343-1.488,2.289-2.175,4.121-2.175c1.718,0,3.549,0.573,3.778,1.832c1.145,4.923,2.289,7.785,3.435,12.708
		c0.458,1.717,1.145,2.404,1.946,2.404c1.374,0,3.091-1.488,4.235-2.404c5.381-4.007,5.61-9.502,9.273-15.112
		c0.573-0.916,1.604-1.259,2.748-1.259c2.404,0,5.381,1.717,5.839,4.007c2.29,11.334,4.465,22.325,10.991,35.033
		c0.229,0.458,0.343,0.916,0.343,1.374C713.263,77.876,710.974,79.249,708.798,79.249z"/>
	<path fill="#FFFFFF" d="M725.627,22.006c-1.03,0.229-1.946,0.343-2.747,0.343c-5.267,0-8.701-3.206-10.991-6.869
		c-0.343-0.572-0.458-1.03-0.458-1.603c0-1.488,1.26-2.977,4.122-2.977c0.343,0,0.687,0.115,1.145,0.115
		c4.694,0.572,7.785,1.832,11.334,4.465c1.03,0.687,1.374,1.603,1.374,2.519C729.405,19.831,727.573,21.663,725.627,22.006z
		 M727.688,77.074c-1.604,0-3.092-0.344-3.778-1.145c-3.778-4.122-5.953-8.472-6.183-13.052c-0.229-4.923-0.229-8.701-0.229-12.594
		v-4.122c0-2.519-0.115-5.266-0.115-8.357v-0.114c0-1.946,1.26-2.748,2.748-2.748c2.748,0,6.641,2.519,6.525,5.724v0.229
		c-0.114,5.61-1.488,10.075-1.488,14.54c0,2.748,0.458,5.381,1.832,8.472c1.718,3.778,3.549,5.496,6.183,8.587
		c0.458,0.572,0.687,1.145,0.687,1.603C733.87,75.93,730.665,77.074,727.688,77.074z"/>
	<path fill="#FFFFFF" d="M791.915,78.562c-4.58,2.977-11.792,4.236-18.547,4.236c-4.58,0-9.045-0.572-12.365-1.718
		c-9.846-3.205-20.149-8.243-20.149-18.203c0-0.916,0-1.832,0.229-2.862c2.061-10.991,8.128-15.914,16.943-21.523
		c5.839-3.664,11.678-6.182,17.517-6.182c3.206,0,6.411,0.801,9.731,2.519s4.923,4.694,4.923,7.785c0,2.519-1.03,5.152-3.32,7.327
		c-6.869,6.755-13.28,5.839-21.752,9.617c-3.435,1.488-6.183,2.175-8.357,2.175c-2.404,0-4.122-0.801-4.923-1.946
		c-0.229-0.343-0.802-0.801-1.26-0.801s-0.916,0.458-1.03,1.717c0,0.458-0.114,0.801-0.114,1.145
		c0,7.441,9.273,10.532,16.371,12.364c4.122,1.03,7.441,1.488,10.876,1.488c4.008,0,7.9-0.572,12.938-1.488
		c0.229,0,0.458-0.114,0.687-0.114c1.718,0,2.52,1.374,2.52,2.633C792.831,77.532,792.487,78.219,791.915,78.562z M778.405,39.866
		h-0.229c-8.815,0.458-20.15,5.495-26.332,12.135c-0.688,0.687-1.03,1.603-1.03,2.175c0,0.687,0.343,1.145,1.03,1.145
		c0.343,0,0.801-0.115,1.373-0.343c6.183-2.519,17.86-2.29,27.02-9.159c1.03-0.687,1.374-1.603,1.374-2.519
		C781.611,41.583,780.008,39.751,778.405,39.866z"/>
	<path fill="#FFFFFF" d="M832.786,40.896c-0.458,1.946-4.121,4.007-6.183,4.007c-0.801,0-1.373-0.229-1.373-1.03v-0.229
		c0-0.343,0.114-0.687,0.114-1.03c0-2.061-1.26-3.091-2.634-3.091c-0.343,0-0.801,0.115-1.259,0.344
		c-2.634,1.259-4.694,2.862-8.243,4.122c-0.687,0.229-1.03,1.03-1.03,1.832c0,0.687,0.229,1.488,0.687,1.946
		c6.869,6.64,10.762,9.96,16.486,17.173c1.374,1.832,2.061,3.664,2.061,5.61c0,2.289-0.916,4.351-2.747,6.067
		c-3.32,3.091-13.854,7.557-20.723,7.557c-1.717,0-3.32-0.344-4.351-1.031c-2.404-1.488-3.32-3.319-3.32-4.808
		c0-1.946,1.604-3.55,3.893-3.55c0.688,0,1.374,0.115,2.176,0.458c1.259,0.572,2.633,0.802,3.893,0.802
		c2.862,0,5.839-1.145,8.815-2.862c1.374-0.802,1.946-1.717,1.946-2.747c0-1.488-1.03-3.092-2.29-4.809
		c-8.014-10.991-15.799-11.105-17.859-17.173c-0.458-1.259-0.688-2.519-0.688-3.778c0-2.862,1.374-5.266,4.122-6.525
		c5.724-2.519,14.883-8.014,19.92-8.014c0.573,0,1.031,0,1.374,0.114c5.725,1.603,7.557,4.236,7.557,7.785
		C833.13,38.95,833.015,39.866,832.786,40.896z"/>
</g>
</svg>
