<?xml version="1.0" encoding="utf-8"?>
<!-- Generator: Adobe Illustrator 16.0.0, SVG Export Plug-In . SVG Version: 6.00 Build 0)  -->
<!DOCTYPE svg PUBLIC "-//W3C//DTD SVG 1.1//EN" "http://www.w3.org/Graphics/SVG/1.1/DTD/svg11.dtd">
<svg version="1.1" id="Livello_1" xmlns="http://www.w3.org/2000/svg" xmlns:xlink="http://www.w3.org/1999/xlink" x="0px" y="0px"
	 width="100px" height="100px" viewBox="0 0 100 100" enable-background="new 0 0 100 100" xml:space="preserve">
<g>
	<path fill="#FFFFFF" d="M44.616,66.849c-0.291,1.012-0.523,1.896-0.802,2.756c-1,3.163-2.372,6.128-4.616,8.64
		c-2.488,2.791-5.57,4.326-9.372,4.279c-3.384-0.035-6.442-3.163-6.384-6.5c0.023-1.186,0.663-2.047,1.512-2.779
		c0.093-0.082,0.302-0.023,0.465-0.035c-0.011,0.151,0.023,0.35-0.046,0.465c-0.732,1.152-0.64,2.012,0.43,2.896
		c1.279,1.046,2.802,1.232,4.396,1.115c2.209-0.162,3.849-1.302,5.151-3.012c1.175-1.546,1.965-3.302,2.57-5.127
		c0.128-0.407,0.314-0.605,0.768-0.698c1.884-0.372,3.698-0.988,5.442-1.778C44.209,67,44.326,66.965,44.616,66.849z"/>
	<path fill="#333366" d="M29.977,82.709h-0.151c-1.663-0.023-3.349-0.779-4.616-2.069c-1.268-1.291-1.977-2.978-1.954-4.616
		c0.023-1.419,0.907-2.35,1.57-2.919c0.093-0.081,0.221-0.093,0.314-0.093c0.046,0,0.081,0,0.128,0c0.035,0,0.07,0,0.104,0
		L25.593,73l0.012,0.221c0,0.047,0,0.094,0,0.14c0,0.128,0,0.279-0.081,0.407c-0.698,1.081-0.582,1.849,0.384,2.65
		c0.918,0.756,2.023,1.105,3.477,1.105l0,0c0.256,0,0.512-0.012,0.779-0.035c1.989-0.15,3.628-1.116,5.012-2.93
		c1.035-1.361,1.837-2.977,2.535-5.07c0.139-0.406,0.349-0.709,0.907-0.826c1.802-0.359,3.616-0.953,5.407-1.767
		c0.069-0.035,0.139-0.058,0.256-0.104l0.616-0.256l-0.105,0.372c-0.093,0.337-0.186,0.651-0.267,0.953
		c-0.175,0.628-0.349,1.222-0.535,1.802c-1.174,3.698-2.651,6.466-4.651,8.71C36.768,81.244,33.616,82.709,29.977,82.709z
		 M25.128,73.372c-0.058,0-0.07,0.012-0.07,0.012c-0.977,0.849-1.418,1.663-1.442,2.64c-0.023,1.535,0.651,3.128,1.849,4.349
		c1.209,1.232,2.791,1.942,4.36,1.966h0.151c3.523,0,6.582-1.42,9.082-4.222c1.965-2.198,3.418-4.919,4.57-8.569
		c0.186-0.582,0.349-1.175,0.523-1.803c0.058-0.186,0.104-0.384,0.163-0.593c-0.058,0.022-0.104,0.046-0.14,0.058
		c-1.814,0.826-3.651,1.419-5.488,1.791c-0.36,0.07-0.5,0.209-0.628,0.57c-0.709,2.139-1.535,3.79-2.593,5.186
		c-1.454,1.918-3.186,2.918-5.279,3.082c-0.291,0.022-0.558,0.034-0.814,0.034l0,0c-1.523,0-2.732-0.396-3.709-1.187
		c-1.128-0.918-1.267-1.895-0.465-3.139c0.023-0.023,0.023-0.105,0.023-0.175C25.186,73.384,25.163,73.372,25.128,73.372z"/>
</g>
<g>
	<path fill="#FFFFFF" d="M44.128,62.197c0.302-1.674,0.616-3.221,0.872-4.779c0.349-2.139,0.64-4.29,0.977-6.441
		c0.186-1.244,0.791-2.279,1.651-3.186c0.523-0.546,0.535-0.767,0.023-1.279c-1.117-1.128-1.593-2.5-1.814-4.046
		c-0.651-4.779-1.337-9.57-2.745-14.209c-0.802-2.674-1.883-5.232-3.732-7.396c-2.186-2.558-5.477-3.5-8.616-2.488
		c-0.954,0.314-1.802,0.791-2.372,1.663c-0.558,0.849-0.523,1.558,0.07,2.396c0.128,0.174,0.093,0.465,0.128,0.698
		c-0.221-0.07-0.488-0.093-0.651-0.232c-1.465-1.268-1.86-2.849-1.349-4.675c1.07-3.872,4.779-6.174,8.814-5.616
		c4.896,0.675,8.268,3.442,10.826,7.407c2.186,3.396,3.372,7.174,4.302,11.058c0.977,4.07,2.012,8.116,3.093,12.163
		c0.349,1.314,0.884,2.593,1.837,3.651c0.094,0.104,0.105,0.407,0.012,0.5c-1.349,1.593-1.871,3.558-2.441,5.488
		c-0.5,1.71-0.907,3.442-1.326,5.163c-0.104,0.441-0.313,0.756-0.709,1.012c-1.942,1.268-3.988,2.291-6.209,2.977
		C44.593,62.082,44.407,62.128,44.128,62.197z"/>
	<path fill="#333366" d="M43.86,62.488l0.058-0.337c0.093-0.523,0.198-1.035,0.291-1.535c0.209-1.116,0.407-2.175,0.581-3.244
		c0.221-1.337,0.419-2.71,0.617-4.023c0.116-0.802,0.232-1.604,0.36-2.407c0.186-1.209,0.744-2.29,1.698-3.302
		c0.442-0.465,0.453-0.558,0.035-0.977c-1.023-1.046-1.628-2.372-1.872-4.163c-0.721-5.314-1.384-9.732-2.732-14.174
		C41.93,25.116,40.791,22.86,39.209,21c-1.547-1.814-3.663-2.814-5.942-2.814c-0.814,0-1.64,0.128-2.442,0.396
		c-1.07,0.349-1.779,0.849-2.256,1.57c-0.5,0.767-0.488,1.372,0.058,2.163c0.116,0.174,0.128,0.384,0.14,0.57
		c0,0.07,0.012,0.14,0.023,0.209l0.058,0.349l-0.337-0.116c-0.058-0.023-0.128-0.035-0.198-0.046
		c-0.174-0.047-0.372-0.082-0.523-0.221c-1.488-1.279-1.965-2.93-1.418-4.896c0.965-3.5,4.116-5.849,7.837-5.849
		c0.407,0,0.814,0.023,1.221,0.082c4.535,0.616,8.128,3.081,10.977,7.512c2.325,3.627,3.5,7.651,4.325,11.116
		c0.965,4.011,2,8.093,3.094,12.151c0.406,1.523,0.977,2.663,1.79,3.558c0.163,0.175,0.175,0.605,0.023,0.779
		c-1.232,1.454-1.768,3.279-2.291,5.035l-0.116,0.371c-0.418,1.408-0.768,2.873-1.104,4.279l-0.21,0.873
		c-0.127,0.512-0.371,0.859-0.802,1.139c-2.104,1.373-4.151,2.361-6.268,3.012c-0.128,0.035-0.244,0.07-0.395,0.117L43.86,62.488z
		 M33.268,17.756c2.407,0,4.64,1.058,6.267,2.965c1.617,1.907,2.779,4.209,3.768,7.477c1.349,4.477,2.023,8.918,2.744,14.244
		c0.233,1.709,0.791,2.954,1.756,3.93c0.582,0.593,0.57,0.942-0.023,1.57c-0.896,0.942-1.419,1.942-1.593,3.07
		c-0.128,0.803-0.244,1.604-0.36,2.406c-0.198,1.326-0.396,2.687-0.616,4.035c-0.175,1.07-0.372,2.129-0.582,3.244
		c-0.07,0.396-0.151,0.803-0.221,1.21c0.116-0.035,0.209-0.059,0.313-0.093c2.07-0.641,4.082-1.605,6.163-2.954
		c0.337-0.221,0.523-0.477,0.616-0.884l0.209-0.872c0.338-1.419,0.698-2.884,1.117-4.302l0.115-0.373
		c0.535-1.802,1.082-3.662,2.373-5.186c0.012-0.035,0.012-0.186-0.012-0.232c-0.85-0.942-1.454-2.128-1.885-3.721
		c-1.08-4.058-2.127-8.151-3.092-12.163c-0.826-3.43-1.977-7.407-4.279-10.988c-2.791-4.326-6.279-6.721-10.686-7.326
		c-0.384-0.058-0.779-0.082-1.163-0.082c-3.523,0-6.5,2.233-7.418,5.547c-0.5,1.791-0.059,3.291,1.291,4.465
		c0.058,0.046,0.163,0.082,0.268,0.104c-0.012-0.116-0.023-0.232-0.07-0.302c-0.64-0.93-0.663-1.721-0.07-2.628
		c0.535-0.814,1.326-1.372,2.488-1.744C31.535,17.896,32.407,17.756,33.268,17.756z"/>
</g>
<g>
	<path fill="#FFFFFF" d="M24.884,30.709c0,0.291,0,0.488,0,0.698c0,9.837,0,19.663,0,29.5c0,5.441,0.012,10.896,0,16.337
		c-0.012,2.744-2.768,5.744-5.454,5.918c-0.477,0.035-0.965-0.104-1.442-0.221c-0.116-0.023-0.256-0.244-0.268-0.383
		c-0.011-0.094,0.175-0.268,0.291-0.291c0.86-0.14,1.651-0.407,2.174-1.163c0.628-0.919,0.756-1.953,0.756-3.022
		c0-12.733,0-25.466,0-38.198c0-1.977,0.012-3.954-0.012-5.93c0-0.419,0.104-0.721,0.442-0.954c1-0.698,2-1.396,3-2.093
		C24.5,30.826,24.651,30.802,24.884,30.709z"/>
	<path fill="#333366" d="M19.291,83.384c-0.395,0-0.791-0.093-1.174-0.187l-0.186-0.046c-0.232-0.059-0.407-0.372-0.43-0.569
		c-0.023-0.233,0.279-0.489,0.477-0.523c0.721-0.117,1.535-0.338,2.035-1.07c0.628-0.918,0.709-1.988,0.709-2.906V38.326
		c0-1.454,0-2.918-0.011-4.372c0-0.512,0.163-0.872,0.535-1.128l1.14-0.791c0.616-0.43,1.244-0.872,1.86-1.302
		c0.104-0.07,0.209-0.104,0.349-0.151c0.059-0.023,0.128-0.047,0.209-0.082l0.291-0.116v35.198c0,3.883,0,7.767,0,11.65
		c-0.011,2.85-2.86,5.941-5.651,6.14C19.384,83.384,19.337,83.384,19.291,83.384z M17.942,82.57c0.023,0.069,0.082,0.15,0.104,0.174
		l0.174,0.035c0.396,0.093,0.814,0.197,1.198,0.174c2.593-0.174,5.256-3.058,5.256-5.709c0.012-3.884,0.012-7.768,0-11.651V31.012
		c-0.07,0.023-0.128,0.046-0.174,0.081c-0.628,0.431-1.244,0.861-1.86,1.291l-1.14,0.791c-0.256,0.174-0.36,0.407-0.36,0.779
		c0.012,1.465,0.012,2.918,0.012,4.384v11.07v28.686c0,0.989-0.093,2.14-0.791,3.151c-0.593,0.86-1.5,1.116-2.314,1.244
		C18.023,82.488,17.965,82.535,17.942,82.57z"/>
</g>
<g>
	<path fill="#FFFFFF" d="M19.64,61.453c-0.756-0.639-1.547-1.256-2.268-1.918c-2.186-2-3.965-4.361-5.698-6.744
		c-0.767-1.047-1.582-2.059-2.302-3.14c-1.046-1.593-2.709-1.872-4.256-1.523c-0.209,0.046-0.442-0.012-0.651-0.023
		c0.011-0.221-0.047-0.5,0.058-0.651C4.849,47,5.209,46.558,5.628,46.186c0.512-0.442,0.5-0.721-0.023-1.163
		c-0.442-0.372-0.791-0.837-1.151-1.291c-0.082-0.093-0.058-0.372,0.035-0.465c0.093-0.093,0.314-0.093,0.477-0.082
		c0.546,0.046,1.093,0.174,1.639,0.163c1.035-0.035,1.884-0.465,2.523-1.314c1.849-2.465,3.663-4.965,5.593-7.372
		c3.849-4.779,8.803-7.779,14.931-8.779c3.151-0.512,6.325-0.616,9.5-0.314c0.116,0.012,0.232,0.012,0.349,0.023
		c1.791,0.187,1.442-0.104,2.093,1.826c-0.593-0.058-1.139-0.139-1.697-0.174c-5.116-0.372-10.151,0-14.907,2.104
		c-4.896,2.175-7.907,5.989-9.442,10.989c-0.523,1.709-1.418,3.093-2.942,4.035c-0.442,0.279-0.965,0.43-1.418,0.709
		c-0.221,0.128-0.465,0.395-0.488,0.616c-0.012,0.174,0.279,0.465,0.488,0.535c2.221,0.837,3.64,2.384,4.326,4.64
		c0.814,2.721,2.104,5.187,4.046,7.29c0.128,0.129,0.232,0.338,0.232,0.512c0.023,0.885,0.012,1.756,0.012,2.641
		C19.744,61.372,19.698,61.418,19.64,61.453z"/>
	<path fill="#333366" d="M19.628,61.721L19.5,61.616c-0.232-0.198-0.477-0.396-0.721-0.593c-0.523-0.431-1.059-0.872-1.559-1.338
		c-2.186-2-3.965-4.348-5.732-6.778c-0.268-0.36-0.535-0.722-0.802-1.069c-0.512-0.664-1.035-1.361-1.5-2.07
		c-0.674-1.023-1.686-1.558-2.93-1.558c-0.36,0-0.721,0.046-1.104,0.128c-0.151,0.035-0.337,0.023-0.512,0
		c-0.07-0.012-0.128-0.012-0.198-0.023l-0.221-0.012l0.012-0.221c0-0.058,0-0.128,0-0.198c-0.012-0.186-0.012-0.396,0.105-0.558
		c0.279-0.396,0.674-0.896,1.139-1.302c0.209-0.175,0.303-0.314,0.303-0.419c0-0.104-0.105-0.244-0.326-0.43
		c-0.43-0.36-0.779-0.814-1.128-1.244l-0.058-0.07c-0.14-0.174-0.116-0.57,0.046-0.744c0.093-0.104,0.256-0.151,0.477-0.151
		c0.058,0,0.117,0,0.163,0.011c0.209,0.012,0.407,0.047,0.616,0.07c0.314,0.046,0.604,0.082,0.907,0.082H6.57
		c0.977-0.035,1.768-0.442,2.36-1.232c0.465-0.616,0.93-1.244,1.396-1.872c1.349-1.826,2.756-3.709,4.198-5.512
		c3.93-4.884,9-7.86,15.058-8.849c3.163-0.511,6.384-0.616,9.558-0.314c0.046,0,0.104,0.012,0.151,0.012
		c0.07,0,0.14,0.012,0.198,0.012c0.221,0.023,0.407,0.035,0.57,0.058c1.07,0.093,1.14,0.151,1.5,1.291
		c0.058,0.175,0.128,0.384,0.209,0.628l0.104,0.314l-0.326-0.035c-0.186-0.023-0.384-0.046-0.558-0.058
		c-0.384-0.046-0.756-0.093-1.128-0.116c-1.151-0.082-2.268-0.128-3.314-0.128c-4.372,0-8.128,0.721-11.488,2.221
		c-4.593,2.035-7.732,5.698-9.326,10.861c-0.581,1.883-1.57,3.244-3.035,4.151c-0.244,0.151-0.5,0.268-0.756,0.384
		c-0.232,0.104-0.465,0.209-0.663,0.326c-0.198,0.116-0.373,0.325-0.384,0.453c0.011,0.07,0.197,0.268,0.349,0.326
		c2.291,0.872,3.744,2.43,4.454,4.78c0.86,2.871,2.163,5.221,4,7.209c0.14,0.15,0.291,0.395,0.291,0.639
		C20.012,59.326,20,60,20,60.64v0.79L19.628,61.721z M6.268,47.779c1.395,0,2.523,0.604,3.279,1.755
		c0.465,0.698,0.977,1.383,1.488,2.047c0.268,0.359,0.547,0.721,0.803,1.08c1.755,2.408,3.511,4.733,5.674,6.71
		c0.5,0.454,1.035,0.896,1.546,1.325c0.174,0.151,0.36,0.291,0.535,0.442v-0.478c0-0.639,0-1.302-0.011-1.953
		c0-0.104-0.082-0.256-0.186-0.371c-1.884-2.035-3.221-4.442-4.093-7.373c-0.663-2.221-2.035-3.686-4.198-4.511
		c-0.267-0.105-0.651-0.454-0.628-0.756c0.023-0.302,0.326-0.616,0.593-0.779c0.232-0.139,0.477-0.244,0.721-0.349
		c0.256-0.116,0.489-0.221,0.709-0.349c1.372-0.86,2.302-2.139,2.86-3.918c1.628-5.291,4.849-9.035,9.57-11.116
		c3.418-1.512,7.232-2.256,11.663-2.256c1.059,0,2.187,0.046,3.349,0.128c0.384,0.023,0.756,0.07,1.151,0.116
		c0.082,0.012,0.151,0.023,0.233,0.023c-0.035-0.116-0.07-0.221-0.105-0.326c-0.291-0.93-0.291-0.93-1.139-1
		c-0.163-0.012-0.349-0.035-0.582-0.058c-0.058-0.012-0.116-0.012-0.186-0.012c-0.058,0-0.116-0.012-0.174-0.012
		c-3.14-0.302-6.326-0.198-9.454,0.314C23.732,27.07,18.756,30,14.896,34.802c-1.442,1.791-2.837,3.674-4.198,5.5
		c-0.465,0.628-0.93,1.244-1.396,1.872c-0.674,0.896-1.582,1.36-2.686,1.396H6.512c-0.326,0-0.651-0.046-0.965-0.093
		c-0.198-0.023-0.395-0.058-0.593-0.069c-0.046,0-0.082-0.012-0.128-0.012c-0.14,0-0.174,0.023-0.174,0.023
		c-0.012,0.023-0.023,0.151,0,0.198l0.046,0.058c0.326,0.418,0.674,0.849,1.07,1.186C6,45.058,6.232,45.302,6.232,45.604
		c0,0.303-0.244,0.558-0.453,0.733c-0.431,0.383-0.803,0.849-1.07,1.232c-0.035,0.046-0.023,0.198-0.023,0.302
		c0,0.012,0,0.023,0,0.035c0.012,0,0.012,0,0.012,0c0.14,0.011,0.279,0.023,0.384,0.011C5.477,47.826,5.884,47.779,6.268,47.779z"/>
</g>
<g>
	<path fill="#FFFFFF" d="M26.012,62.57c1.244,0.337,2.407,0.721,3.593,0.953c6.082,1.186,12.082,1.186,17.896-1.326
		c3.628-1.569,6.709-3.883,9.418-6.697c0.942-0.977,1.547-2.151,1.244-3.57c-0.092-0.43-0.371-0.813-0.534-1.232
		c-0.058-0.162-0.023-0.349-0.035-0.523c0.175,0.012,0.36-0.012,0.523,0.046c1.256,0.512,2.14,1.361,2.512,2.697
		c0.128,0.478,0.581,0.478,0.965,0.559c1.442,0.314,2.593,1.059,3.337,2.326c0.268,0.453,0.385,1.012,0.523,1.535
		c0.035,0.127-0.104,0.302-0.162,0.453c-0.163-0.07-0.384-0.094-0.488-0.209c-1.57-1.629-3.454-1.978-5.385-0.803
		c-1.488,0.906-2.883,1.988-4.29,3.023c-3.593,2.627-7.535,4.488-11.907,5.395c-3.697,0.768-7.441,1-11.186,0.559
		c-1.779-0.209-3.523-0.64-5.291-0.93c-0.593-0.105-0.779-0.396-0.721-0.966C26.058,63.441,26.012,63.012,26.012,62.57z"/>
	<path fill="#333366" d="M35.86,66.197c-1.291,0-2.593-0.081-3.872-0.232c-1.128-0.139-2.268-0.36-3.36-0.569
		c-0.651-0.128-1.291-0.256-1.942-0.36c-0.686-0.117-0.965-0.5-0.896-1.187c0.035-0.278,0.023-0.558,0.012-0.86
		c0-0.14-0.012-0.279-0.012-0.418v-0.279l0.268,0.069c0.396,0.104,0.791,0.222,1.174,0.325c0.826,0.232,1.605,0.466,2.407,0.617
		c2.64,0.512,5.046,0.768,7.349,0.768c3.779,0,7.186-0.675,10.419-2.082c3.396-1.465,6.453-3.64,9.349-6.65
		c1.059-1.094,1.441-2.198,1.186-3.373c-0.046-0.232-0.162-0.453-0.29-0.697c-0.081-0.163-0.163-0.326-0.233-0.5
		c-0.058-0.151-0.046-0.303-0.046-0.442c0-0.046,0-0.105,0-0.151L57.36,49.93l0.244,0.023c0.175,0.011,0.384-0.023,0.581,0.058
		c1.385,0.559,2.268,1.512,2.641,2.837c0.069,0.256,0.268,0.303,0.615,0.372c0.059,0.012,0.129,0.023,0.187,0.035
		c1.558,0.337,2.732,1.15,3.477,2.418c0.244,0.408,0.36,0.873,0.478,1.326l0.069,0.268c0.046,0.162-0.035,0.325-0.104,0.453
		c-0.023,0.047-0.047,0.082-0.059,0.128l-0.081,0.198l-0.198-0.082c-0.047-0.023-0.093-0.035-0.15-0.047
		c-0.141-0.046-0.303-0.08-0.419-0.209c-1.535-1.593-3.325-1.86-5.128-0.768c-1.174,0.71-2.303,1.559-3.396,2.361
		c-0.29,0.221-0.593,0.441-0.884,0.65c-3.709,2.721-7.744,4.547-11.988,5.431C40.744,65.93,38.256,66.197,35.86,66.197z
		 M26.232,62.838c0,0.046,0,0.08,0,0.127c0.012,0.303,0.012,0.605-0.023,0.919c-0.058,0.477,0.081,0.651,0.546,0.732
		c0.651,0.116,1.302,0.244,1.954,0.36c1.093,0.209,2.209,0.431,3.325,0.57c3.582,0.43,7.326,0.244,11.117-0.547
		c4.186-0.872,8.163-2.674,11.825-5.36c0.291-0.222,0.594-0.431,0.884-0.651c1.104-0.814,2.232-1.662,3.431-2.384
		c1.965-1.197,3.977-0.896,5.65,0.837c0.035,0.035,0.141,0.07,0.232,0.094c0.023-0.047,0.07-0.128,0.07-0.151l-0.07-0.256
		c-0.104-0.419-0.221-0.86-0.43-1.221c-0.686-1.163-1.756-1.907-3.197-2.222c-0.059-0.012-0.105-0.023-0.163-0.034
		c-0.337-0.059-0.802-0.14-0.954-0.675c-0.337-1.197-1.115-2.035-2.383-2.558c-0.059-0.023-0.141-0.023-0.221-0.023
		c0,0.093,0,0.175,0.022,0.232c0.059,0.163,0.14,0.313,0.222,0.465c0.127,0.256,0.256,0.512,0.325,0.791
		c0.29,1.325-0.14,2.558-1.291,3.756c-2.942,3.046-6.046,5.256-9.488,6.744C44.326,63.803,40.86,64.5,37.023,64.5
		c-2.326,0-4.756-0.256-7.431-0.779c-0.813-0.162-1.604-0.383-2.441-0.628C26.837,63.012,26.535,62.93,26.232,62.838z"/>
</g>
<g>
	<path fill="#FFFFFF" d="M20.942,27.709c0-0.279,0-0.489,0-0.698c0-3.616,0.023-7.244-0.012-10.86
		c-0.012-0.733-0.128-1.477-0.337-2.186c-0.325-1.117-1.139-1.733-2.302-1.942c-0.209-0.035-0.395-0.233-0.593-0.349
		c0.174-0.163,0.314-0.395,0.523-0.465c1.023-0.361,2.023-0.14,2.907,0.36c2.326,1.314,3.826,3.14,3.768,5.977
		c-0.047,2.628-0.023,5.244,0,7.872c0,0.407-0.128,0.616-0.523,0.779C23.256,26.64,22.151,27.163,20.942,27.709z"/>
	<path fill="#333366" d="M20.721,28.035v-3.872c0-2.628,0.012-5.349-0.023-8.023c-0.012-0.674-0.116-1.407-0.326-2.128
		c-0.279-0.988-1-1.582-2.128-1.791c-0.198-0.035-0.36-0.151-0.5-0.255c-0.058-0.047-0.116-0.082-0.163-0.117l-0.233-0.139
		l0.198-0.186c0.046-0.047,0.093-0.105,0.14-0.151c0.116-0.14,0.256-0.291,0.454-0.36c0.988-0.349,2.046-0.209,3.081,0.372
		c2.663,1.5,3.931,3.523,3.884,6.163c-0.046,2.256-0.023,4.558-0.012,6.779l0.012,1.082c0,0.511-0.174,0.779-0.651,0.977
		c-0.802,0.326-1.582,0.686-2.407,1.058c-0.337,0.151-0.674,0.302-1.023,0.465L20.721,28.035z M18.023,11.64
		c0.116,0.081,0.221,0.163,0.314,0.174c1.291,0.232,2.139,0.954,2.465,2.093c0.221,0.755,0.337,1.535,0.337,2.244
		c0.023,2.674,0.023,5.395,0.023,8.023v3.209c0.245-0.104,0.477-0.221,0.721-0.326c0.837-0.384,1.616-0.732,2.43-1.07
		c0.314-0.128,0.384-0.244,0.384-0.581l-0.012-1.082c-0.012-2.221-0.035-4.523,0.012-6.791c0.046-2.511-1.116-4.349-3.663-5.779
		c-0.93-0.523-1.86-0.651-2.732-0.349C18.198,11.43,18.116,11.535,18.023,11.64z"/>
</g>
<g>
	<path fill="#FFFFFF" d="M51.209,29.082c0.884,0.535,1.629,0.93,2.314,1.418c1.441,1,2.837,2.058,4.268,3.07
		c0.581,0.407,1.162,0.814,1.791,1.151c1.836,1,3.767,0.651,5.197-0.872c0.116-0.128,0.325-0.174,0.488-0.256
		c0.07,0.187,0.221,0.373,0.197,0.547c-0.221,1.616-1.232,2.674-2.627,3.384c-0.431,0.221-0.92,0.384-1.396,0.453
		c-0.477,0.082-0.744,0.291-0.871,0.733c-0.373,1.314-1.396,1.977-2.535,2.535c-0.105,0.046-0.314,0.046-0.373-0.023
		c-0.08-0.093-0.068-0.267-0.08-0.407c0-0.035,0.034-0.07,0.058-0.104c0.977-1.872,0.813-3.372-0.756-4.872
		c-1.442-1.384-3.023-2.64-4.558-3.919c-0.35-0.291-0.617-0.558-0.675-1.035C51.535,30.337,51.372,29.802,51.209,29.082z"/>
	<path fill="#333366" d="M57.826,41.488c-0.117,0-0.268-0.023-0.361-0.128c-0.104-0.128-0.116-0.291-0.127-0.43
		c0-0.035,0-0.07-0.012-0.093c-0.012-0.105,0.046-0.175,0.069-0.209c0.965-1.86,0.756-3.232-0.698-4.64
		c-1.209-1.163-2.535-2.244-3.813-3.302l-0.732-0.604c-0.349-0.291-0.675-0.593-0.756-1.163c-0.047-0.36-0.14-0.721-0.244-1.139
		c-0.047-0.198-0.104-0.419-0.163-0.651l-0.116-0.488l0.431,0.268c0.29,0.174,0.558,0.337,0.813,0.488
		c0.535,0.314,1.035,0.604,1.5,0.942c0.813,0.57,1.628,1.163,2.419,1.732c0.616,0.442,1.221,0.896,1.849,1.326
		c0.546,0.395,1.14,0.802,1.768,1.139c1.721,0.931,3.569,0.617,4.941-0.825c0.116-0.117,0.268-0.186,0.396-0.233
		c0.047-0.023,0.105-0.035,0.151-0.058l0.209-0.104l0.081,0.221c0.023,0.047,0.047,0.105,0.07,0.151
		c0.07,0.151,0.162,0.314,0.128,0.5c-0.221,1.558-1.116,2.709-2.744,3.546c-0.454,0.233-0.954,0.396-1.466,0.477
		c-0.406,0.07-0.604,0.221-0.697,0.581c-0.395,1.407-1.512,2.117-2.65,2.663C58,41.477,57.896,41.488,57.826,41.488z M57.791,41.058
		c0.035,0,0.104,0,0.116-0.012c1.046-0.512,2.069-1.151,2.419-2.395c0.15-0.523,0.465-0.791,1.046-0.884
		c0.466-0.07,0.919-0.221,1.337-0.43c1.5-0.768,2.326-1.814,2.512-3.221c0.012-0.046-0.047-0.151-0.093-0.244
		c-0.093,0.035-0.175,0.07-0.221,0.116c-0.919,0.988-2.047,1.5-3.245,1.5c-0.744,0-1.488-0.198-2.209-0.593
		c-0.639-0.349-1.244-0.768-1.802-1.163c-0.616-0.442-1.233-0.884-1.849-1.337c-0.791-0.57-1.605-1.163-2.419-1.733
		c-0.454-0.314-0.931-0.593-1.478-0.918c-0.127-0.07-0.255-0.151-0.383-0.221c0.012,0.046,0.023,0.104,0.035,0.151
		c0.104,0.43,0.197,0.802,0.256,1.186c0.058,0.384,0.244,0.605,0.604,0.896l0.733,0.604c1.29,1.058,2.616,2.151,3.849,3.326
		c1.593,1.535,1.838,3.104,0.791,5.128l-0.023,0.046c0,0.023,0,0.035,0,0.058C57.779,40.954,57.779,41.023,57.791,41.058z"/>
</g>
<g>
	<path fill="#FFFFFF" d="M83.477,57.523v-9.337H67.418v-3.058l15.431-21.884h5.059v21.302h4.837v3.64h-4.837v9.337H83.477z
		 M83.477,44.546V33.104c0-1.791,0.059-3.581,0.163-5.384h-0.163c-1.059,2-1.918,3.477-2.872,5.059L72.151,44.43v0.104h11.325
		V44.546z"/>
	<path fill="#231F20" d="M87.918,57.547h-4.453v-9.337H67.396v-3.082l0,0l15.431-21.896h5.081v21.302h4.837v3.686h-4.837v9.326
		H87.918z M83.5,57.5h4.372v-9.337h4.837V44.57h-4.837V23.268h-5.023L67.441,45.14v3.035H83.5V57.5z M83.5,44.57H72.128v-0.128l0,0
		l8.454-11.651c1.069-1.767,1.895-3.232,2.871-5.058l0.012-0.012h0.197v0.023c-0.104,1.791-0.162,3.593-0.162,5.372V44.57z
		 M72.174,44.523h11.291V33.104c0-1.779,0.059-3.581,0.163-5.36h-0.14c-0.965,1.826-1.803,3.291-2.872,5.058l-8.454,11.651v0.07
		H72.174z"/>
</g>
<g>
	<g>
		<path fill="#3A549B" d="M26,78c-0.535,2.709-2.128,4.559-4.535,5.768c-1.245,0.628-2.57,0.768-3.896,0.244
			c-0.744-0.291-1.082-0.872-0.988-1.616c0.081-0.687,0.57-1.151,1.36-1.244c0.954-0.104,1.512-0.628,1.709-1.523
			c0.093-0.419,0.151-0.849,0.151-1.279c0.012-4.977,0.012-9.953-0.012-14.931c0-0.244-0.139-0.592-0.337-0.721
			c-2.849-1.988-5.151-4.5-7.221-7.244c-1.279-1.697-2.581-3.371-3.767-5.127c-0.826-1.209-2.058-1.384-3.221-1.046
			c-1.093,0.313-2.174-0.431-1.988-1.454C3.36,47.232,3.732,46.686,4,46.128c0.082-0.174,0.244-0.302,0.36-0.43
			c-0.314-0.465-0.651-0.907-0.907-1.372c-0.326-0.616-0.349-1.256,0.163-1.802c0.477-0.512,1.07-0.582,1.732-0.372
			c1.268,0.383,2.233,0.046,3.023-0.977c2.023-2.651,4.012-5.337,6.116-7.93c1.396-1.732,3.093-3.186,4.919-4.477
			c0.209-0.151,0.383-0.5,0.383-0.756c0.023-4.035,0.023-8.07,0-12.105c0-0.523-0.104-1.058-0.256-1.558
			c-0.209-0.697-0.709-1.093-1.465-1.186c-0.942-0.116-1.454-0.604-1.512-1.372c-0.058-0.791,0.36-1.337,1.244-1.628
			c1.256-0.407,2.477-0.244,3.616,0.326c2.442,1.198,4.035,3.082,4.582,5.884c0.14-0.198,0.232-0.326,0.314-0.465
			c1.907-3.279,5.314-4.872,9.104-4.395c5.291,0.663,8.954,3.616,11.721,7.907c1.512,2.361,2.604,4.919,3.419,7.582
			c0.139,0.442,0.359,0.721,0.79,0.942c2.569,1.291,4.825,3.046,7.116,4.744c0.523,0.384,1.059,0.756,1.629,1.07
			c1.359,0.744,2.79,0.465,3.824-0.698c0.489-0.546,1.141-0.744,1.756-0.512c0.605,0.233,0.978,0.802,0.896,1.558
			c-0.198,1.907-1.256,3.256-2.873,4.209c-0.523,0.302-1.127,0.454-1.686,0.709c-0.221,0.104-0.523,0.267-0.594,0.477
			c-0.522,1.488-1.802,2.174-3.069,2.849c-0.5,0.268-1.209,0.082-1.628-0.36c-0.418-0.442-0.5-1.128-0.209-1.698
			c0.814-1.604,0.721-2.5-0.582-3.756c-1.081-1.058-2.256-2.011-3.395-3.011c-0.082-0.07-0.187-0.116-0.407-0.256
			c0.244,1.081,0.419,2.035,0.675,2.965c0.721,2.582,1.43,5.163,2.256,7.709c0.268,0.814,0.825,1.535,1.302,2.268
			c0.36,0.558,0.488,1.267,0.047,1.744c-1.059,1.186-1.535,2.639-2,4.082c-0.547,1.744-1,3.535-1.512,5.349
			c0.151,0,0.221,0.023,0.256,0c1.058-0.977,2.163-1.896,3.14-2.942c0.871-0.953,1.15-2.058,0.291-3.256
			c-0.442-0.604-0.279-1.395,0.256-1.872c0.546-0.488,1.209-0.5,1.883-0.035c0.151,0.093,0.303,0.186,0.465,0.267
			c1.023,0.454,1.756,1.198,2.152,2.233c0.162,0.418,0.43,0.581,0.836,0.709c2.256,0.663,3.791,2.047,4.35,4.36
			c0.325,1.337-0.535,2.349-1.732,2.047c-0.35-0.093-0.697-0.36-0.942-0.64c-0.825-0.907-2.209-1.303-3.337-0.779
			c-0.674,0.314-1.303,0.732-1.918,1.151c-2.233,1.512-4.466,3.023-6.676,4.558c-0.197,0.141-0.348,0.419-0.406,0.663
			c-0.907,3.837-2.186,7.523-4.279,10.884c-2.058,3.303-4.732,5.93-8.477,7.279c-2.279,0.814-4.64,1.197-7.035,0.581
			c-2.349-0.604-4.093-2.034-5.349-4.093c-0.093-0.151-0.186-0.291-0.279-0.441C26.104,78.035,26.082,78.035,26,78z M26.023,45.686
			c0,4.954,0.011,9.907-0.012,14.873c0,0.534,0.14,0.79,0.663,0.977c5.116,1.732,10.337,2.035,15.651,1.139
			c0.454-0.081,0.616-0.325,0.686-0.732c0.558-3.313,1.163-6.627,1.663-9.953c0.256-1.674,0.616-3.268,1.779-4.581
			c0.244-0.279,0.081-0.442-0.082-0.651c-0.791-0.977-1.326-2.082-1.512-3.337c-0.209-1.453-0.372-2.918-0.651-4.349
			c-0.617-3.221-1.303-6.442-1.942-9.663c-0.116-0.582-0.419-0.779-0.977-0.861c-2.337-0.372-4.686-0.384-7.035-0.221
			c-2.593,0.186-5.128,0.651-7.57,1.523C26.198,30.023,26,30.244,26,30.814C26.035,35.779,26.023,40.732,26.023,45.686z
			 M44.128,62.197c0.268-0.069,0.454-0.127,0.64-0.174c2.221-0.686,4.267-1.721,6.209-2.977c0.396-0.256,0.594-0.57,0.709-1.012
			c0.419-1.732,0.814-3.465,1.326-5.163c0.57-1.931,1.093-3.896,2.441-5.488c0.082-0.104,0.07-0.407-0.012-0.5
			c-0.953-1.058-1.488-2.326-1.837-3.651c-1.081-4.035-2.116-8.093-3.093-12.163c-0.93-3.884-2.116-7.663-4.302-11.058
			c-2.547-3.977-5.93-6.744-10.826-7.407c-4.035-0.558-7.744,1.744-8.814,5.616c-0.5,1.826-0.104,3.407,1.349,4.675
			c0.163,0.139,0.43,0.151,0.651,0.232c-0.035-0.232,0-0.523-0.128-0.698c-0.582-0.837-0.628-1.535-0.07-2.396
			c0.57-0.86,1.418-1.349,2.372-1.663c3.14-1.023,6.43-0.07,8.616,2.488c1.849,2.163,2.919,4.721,3.732,7.396
			c1.396,4.64,2.082,9.43,2.745,14.209c0.209,1.546,0.697,2.918,1.814,4.046c0.5,0.512,0.488,0.732-0.023,1.279
			c-0.86,0.907-1.454,1.942-1.651,3.186c-0.325,2.151-0.628,4.291-0.977,6.441C44.744,58.977,44.442,60.535,44.128,62.197z
			 M24.884,30.709c-0.232,0.093-0.396,0.128-0.512,0.209c-1,0.686-2,1.396-3,2.093c-0.337,0.232-0.454,0.535-0.442,0.954
			c0.023,1.977,0.012,3.953,0.012,5.93c0,12.732,0,25.465,0,38.197c0,1.069-0.128,2.116-0.756,3.023
			c-0.523,0.756-1.314,1.023-2.174,1.163c-0.116,0.023-0.302,0.197-0.291,0.291c0.012,0.139,0.151,0.359,0.268,0.383
			c0.477,0.117,0.965,0.256,1.442,0.221c2.698-0.186,5.454-3.174,5.454-5.918c0.012-5.441,0-10.896,0-16.338
			c0-9.836,0-19.662,0-29.5C24.884,31.198,24.884,30.988,24.884,30.709z M19.64,61.453c0.058-0.035,0.104-0.081,0.163-0.115
			c0-0.885,0.012-1.756-0.012-2.641c0-0.174-0.116-0.371-0.232-0.512c-1.954-2.104-3.232-4.569-4.046-7.29
			c-0.674-2.268-2.104-3.803-4.326-4.64c-0.209-0.082-0.5-0.372-0.488-0.535c0.023-0.221,0.268-0.477,0.488-0.616
			c0.454-0.267,0.977-0.43,1.418-0.709c1.523-0.954,2.419-2.337,2.942-4.035c1.546-5,4.558-8.814,9.442-10.988
			c4.756-2.116,9.779-2.477,14.907-2.104c0.558,0.035,1.104,0.116,1.697,0.174c-0.651-1.93-0.313-1.64-2.093-1.826
			c-0.116-0.012-0.232-0.012-0.349-0.023c-3.186-0.302-6.349-0.197-9.5,0.314c-6.128,1-11.082,3.988-14.931,8.779
			c-1.93,2.407-3.744,4.907-5.593,7.372c-0.64,0.849-1.488,1.279-2.523,1.314c-0.546,0.012-1.093-0.116-1.639-0.163
			c-0.163-0.012-0.384-0.012-0.477,0.081c-0.081,0.093-0.104,0.372-0.035,0.465c0.36,0.454,0.721,0.918,1.151,1.291
			c0.523,0.442,0.523,0.721,0.023,1.163c-0.418,0.36-0.779,0.814-1.104,1.267c-0.116,0.151-0.047,0.431-0.058,0.651
			c0.221,0.012,0.453,0.07,0.651,0.023c1.546-0.349,3.209-0.07,4.256,1.523c0.709,1.082,1.535,2.093,2.302,3.14
			c1.744,2.383,3.512,4.732,5.698,6.744C18.104,60.197,18.884,60.814,19.64,61.453z M50.36,63.988
			c-0.326,0.14-0.453,0.186-0.581,0.244c-1.977,0.896-4.035,1.582-6.163,2.012c-0.512,0.104-0.721,0.338-0.872,0.791
			c-0.686,2.069-1.57,4.047-2.907,5.803c-1.465,1.93-3.337,3.221-5.826,3.406c-1.791,0.14-3.523-0.082-4.977-1.268
			c-1.209-0.988-1.314-1.977-0.488-3.279c0.082-0.127,0.035-0.349,0.058-0.523c-0.174,0.012-0.418-0.046-0.523,0.047
			c-0.965,0.838-1.686,1.803-1.709,3.151c-0.07,3.768,3.396,7.313,7.232,7.36c4.303,0.047,7.803-1.697,10.616-4.849
			c2.535-2.837,4.093-6.198,5.221-9.779C49.768,66.128,50.035,65.14,50.36,63.988z M26.046,71.732
			c0.326-0.372,0.558-0.64,0.802-0.895c0.163-0.176,0.326-0.338,0.512-0.489c0.628-0.534,1.477-0.534,2.035-0.011
			c0.558,0.522,0.604,1.359,0.116,2.022c-0.512,0.687-0.546,1.047,0.128,1.593c0.5,0.407,1.116,0.779,1.744,0.931
			c2.814,0.721,5.221-0.012,7.14-2.21c1.244-1.43,2.069-3.081,2.744-4.825c0.151-0.372,0.267-0.756,0.442-1.232
			c-5.337,0.756-10.512,0.604-15.651-0.825C26.046,67.803,26.046,69.709,26.046,71.732z M26.012,62.57
			c0,0.441,0.035,0.871-0.012,1.29c-0.058,0.569,0.128,0.86,0.721,0.966c1.768,0.302,3.512,0.721,5.291,0.93
			c3.756,0.441,7.488,0.221,11.186-0.559c4.372-0.906,8.326-2.768,11.907-5.395c1.407-1.035,2.803-2.117,4.291-3.023
			c1.931-1.175,3.813-0.826,5.384,0.803c0.116,0.115,0.325,0.139,0.488,0.209c0.059-0.151,0.197-0.326,0.162-0.453
			c-0.139-0.523-0.244-1.082-0.522-1.535c-0.745-1.268-1.896-2.012-3.337-2.326c-0.373-0.081-0.826-0.081-0.966-0.559
			c-0.372-1.325-1.256-2.186-2.512-2.697c-0.151-0.058-0.349-0.035-0.522-0.046c0.012,0.174-0.023,0.373,0.034,0.523
			c0.163,0.419,0.431,0.803,0.535,1.232c0.313,1.419-0.302,2.594-1.244,3.57c-2.71,2.814-5.803,5.128-9.419,6.697
			c-5.802,2.512-11.814,2.512-17.895,1.326C28.418,63.279,27.256,62.896,26.012,62.57z M19.779,34.896
			c-0.047-0.023-0.082-0.035-0.128-0.058c-0.14,0.186-0.291,0.36-0.431,0.546c-1.302,1.756-2.139,3.732-2.779,5.802
			c-0.546,1.802-1.686,3.163-3.256,4.186c-0.14,0.093-0.279,0.186-0.465,0.314c0.105,0.07,0.151,0.104,0.198,0.14
			c1.907,1.14,3.093,2.779,3.709,4.895c0.558,1.931,1.43,3.721,2.64,5.35c0.128,0.174,0.279,0.325,0.5,0.581
			C19.779,49.291,19.779,42.093,19.779,34.896z M20.942,27.709c1.209-0.547,2.314-1.058,3.442-1.523
			c0.396-0.163,0.523-0.36,0.523-0.779c-0.012-2.628-0.047-5.245,0-7.873c0.058-2.825-1.454-4.663-3.768-5.977
			c-0.896-0.5-1.884-0.709-2.907-0.36c-0.198,0.07-0.349,0.302-0.523,0.465c0.198,0.117,0.384,0.314,0.593,0.349
			c1.151,0.209,1.977,0.814,2.302,1.942c0.198,0.709,0.326,1.454,0.337,2.186c0.035,3.616,0.012,7.244,0.012,10.86
			C20.942,27.221,20.942,27.43,20.942,27.709z M40.535,24.558c-0.627-0.954-1.116-1.791-1.697-2.558
			c-1.605-2.128-3.745-3.128-6.442-2.826c-1.175,0.128-2.291,0.442-3.047,1.465c-0.279,0.372-0.302,0.721,0.012,1.116
			c0.651,0.802,0.64,1.628,0.012,2.198c-0.651,0.593-1.488,0.512-2.256-0.233c-0.349-0.349-0.674-0.709-1.058-1.116
			c0,1.035,0,1.977,0,2.988C30.779,24.209,35.535,24.128,40.535,24.558z M51.209,29.082c0.163,0.721,0.326,1.267,0.407,1.814
			c0.069,0.465,0.325,0.732,0.675,1.035c1.547,1.279,3.116,2.535,4.558,3.918c1.569,1.5,1.733,3,0.756,4.872
			c-0.022,0.035-0.058,0.07-0.058,0.105c0.012,0.14,0,0.314,0.081,0.407c0.058,0.07,0.268,0.07,0.372,0.023
			c1.14-0.546,2.162-1.221,2.535-2.535c0.127-0.453,0.395-0.651,0.872-0.732c0.477-0.081,0.965-0.232,1.396-0.454
			c1.406-0.709,2.406-1.767,2.627-3.383c0.023-0.175-0.127-0.361-0.197-0.547c-0.162,0.082-0.372,0.128-0.488,0.256
			c-1.43,1.523-3.36,1.872-5.197,0.872c-0.617-0.337-1.209-0.744-1.791-1.151c-1.43-1.012-2.826-2.07-4.268-3.07
			C52.838,30.012,52.093,29.616,51.209,29.082z"/>
		<path fill="#3A549B" d="M19.221,84.535c-0.581,0-1.163-0.117-1.732-0.338c-0.814-0.325-1.232-0.988-1.128-1.837
			c0.093-0.802,0.674-1.337,1.547-1.431c0.837-0.092,1.337-0.534,1.535-1.359c0.093-0.419,0.14-0.826,0.14-1.232
			c0.011-5.745,0.011-10.489-0.012-14.931c0-0.198-0.116-0.466-0.244-0.559c-2.535-1.767-4.849-4.081-7.268-7.29l-0.593-0.791
			c-1.058-1.396-2.163-2.85-3.175-4.326c-0.5-0.732-1.186-1.104-2.035-1.104c-0.302,0-0.616,0.046-0.942,0.139
			c-0.721,0.209-1.512-0.011-1.942-0.523c-0.279-0.326-0.384-0.744-0.314-1.174c0.082-0.477,0.326-0.907,0.546-1.326
			c0.082-0.14,0.151-0.279,0.221-0.419c0.07-0.151,0.186-0.255,0.279-0.36c-0.07-0.093-0.139-0.198-0.197-0.291
			c-0.221-0.314-0.442-0.628-0.628-0.965c-0.407-0.756-0.337-1.477,0.197-2.046c0.5-0.535,1.14-0.686,1.954-0.43
			c1.151,0.36,2.046,0.07,2.779-0.907c0.558-0.732,1.116-1.465,1.663-2.197c1.442-1.896,2.93-3.861,4.442-5.745
			c1.279-1.581,2.896-3.058,4.965-4.523c0.151-0.104,0.291-0.396,0.291-0.582c0.023-4.012,0.023-8.093,0-12.104
			c0-0.454-0.082-0.954-0.244-1.5c-0.186-0.604-0.616-0.954-1.279-1.035c-1.035-0.128-1.639-0.674-1.698-1.569
			c-0.046-0.617,0.163-1.442,1.396-1.837s2.512-0.279,3.779,0.337c2.453,1.209,3.965,3.035,4.593,5.558
			c0.012-0.012,0.023-0.035,0.035-0.047c1.697-2.907,4.604-4.581,7.988-4.581c0.442,0,0.884,0.023,1.337,0.081
			c4.919,0.617,8.803,3.233,11.872,8c1.431,2.221,2.559,4.721,3.442,7.64c0.116,0.396,0.313,0.628,0.686,0.814
			c2.361,1.186,4.477,2.768,6.535,4.302l0.616,0.454c0.593,0.442,1.104,0.779,1.604,1.046c1.256,0.686,2.605,0.442,3.559-0.651
			c0.535-0.605,1.302-0.826,1.988-0.57c0.721,0.267,1.116,0.954,1.035,1.779c-0.187,1.849-1.187,3.314-2.977,4.372
			c-0.326,0.186-0.687,0.326-1.023,0.454c-0.222,0.082-0.454,0.174-0.675,0.268c-0.384,0.174-0.466,0.302-0.478,0.349
			c-0.558,1.57-1.883,2.279-3.174,2.965c-0.559,0.302-1.406,0.104-1.884-0.396c-0.477-0.512-0.569-1.291-0.244-1.93
			c0.791-1.558,0.663-2.337-0.546-3.512c-0.768-0.744-1.594-1.454-2.396-2.14c-0.313-0.267-0.627-0.546-0.953-0.825
			c0.035,0.174,0.07,0.337,0.105,0.511c0.139,0.675,0.278,1.326,0.453,1.942l0.221,0.779c0.64,2.279,1.291,4.64,2.035,6.93
			c0.197,0.628,0.604,1.209,0.988,1.779c0.104,0.151,0.197,0.291,0.291,0.441c0.465,0.721,0.477,1.5,0.023,2
			c-1.059,1.175-1.535,2.687-1.954,4.012c-0.384,1.21-0.71,2.419-1.058,3.687c-0.117,0.406-0.222,0.825-0.338,1.232
			c0.232-0.221,0.477-0.431,0.709-0.64c0.744-0.663,1.512-1.349,2.198-2.093c0.907-0.988,1-1.988,0.268-2.988
			c-0.478-0.663-0.36-1.57,0.278-2.151c0.617-0.559,1.385-0.582,2.152-0.059c0.162,0.105,0.29,0.187,0.43,0.245
			c1.093,0.477,1.849,1.267,2.268,2.348c0.116,0.314,0.303,0.466,0.697,0.582c2.43,0.709,3.941,2.232,4.5,4.512
			c0.163,0.686,0.059,1.337-0.303,1.791c-0.383,0.488-1.012,0.686-1.686,0.512c-0.465-0.117-0.86-0.489-1.047-0.71
			c-0.779-0.86-2.104-1.187-3.081-0.732c-0.64,0.29-1.256,0.709-1.849,1.104l-0.047,0.035c-2.418,1.628-4.604,3.116-6.674,4.559
			c-0.14,0.092-0.268,0.313-0.326,0.534c-1.047,4.442-2.418,7.919-4.302,10.954c-2.314,3.709-5.128,6.127-8.593,7.371
			c-2.674,0.965-4.988,1.151-7.163,0.594c-2.302-0.582-4.139-2-5.477-4.187c-0.035-0.058-0.07-0.104-0.104-0.163
			c-0.593,2.442-2.128,4.291-4.558,5.512C20.779,84.338,19.988,84.535,19.221,84.535z M6.256,48.907
			c0.988,0,1.814,0.441,2.384,1.291c1,1.476,2.104,2.93,3.174,4.326l0.593,0.791c2.395,3.162,4.674,5.453,7.174,7.197
			C19.849,62.697,20,63.116,20,63.407c0.012,4.441,0.023,9.186,0.012,14.931c0,0.43-0.058,0.883-0.151,1.324
			c-0.232,1.012-0.872,1.57-1.895,1.687c-0.663,0.069-1.093,0.466-1.163,1.059c-0.082,0.663,0.209,1.14,0.86,1.396
			c1.209,0.477,2.465,0.395,3.721-0.244c2.477-1.244,3.918-3.082,4.418-5.617l0.046-0.256l0.314,0.141
			c0.047,0.012,0.105,0.034,0.14,0.104c0.093,0.152,0.198,0.303,0.291,0.454c1.279,2.093,3.035,3.442,5.221,4
			c2.093,0.534,4.314,0.349,6.907-0.581c3.372-1.209,6.105-3.559,8.372-7.198c1.861-2.988,3.221-6.419,4.256-10.825
			c0.059-0.244,0.222-0.594,0.5-0.779c2.081-1.441,4.256-2.93,6.675-4.559l0.047-0.034c0.604-0.407,1.232-0.825,1.906-1.14
			c0.361-0.163,0.756-0.256,1.163-0.256c0.896,0,1.802,0.406,2.419,1.082c0.268,0.302,0.581,0.511,0.837,0.58
			c0.5,0.129,0.953-0.012,1.244-0.359c0.278-0.35,0.36-0.873,0.232-1.431c-0.523-2.128-1.931-3.546-4.21-4.21
			c-0.383-0.115-0.767-0.29-0.977-0.836c-0.371-0.966-1.058-1.687-2.034-2.117c-0.151-0.069-0.313-0.163-0.5-0.279
			c-0.604-0.407-1.151-0.407-1.628,0.023c-0.407,0.372-0.616,1.035-0.221,1.593c0.849,1.174,0.744,2.395-0.303,3.523
			c-0.697,0.756-1.477,1.453-2.221,2.127c-0.314,0.279-0.617,0.547-0.919,0.838c-0.069,0.069-0.163,0.069-0.198,0.069
			c-0.022,0-0.046,0-0.08,0c-0.035,0-0.07,0-0.129,0h-0.279l0.07-0.268c0.151-0.546,0.303-1.104,0.453-1.651
			c0.35-1.279,0.675-2.488,1.059-3.709c0.43-1.372,0.918-2.918,2.047-4.163c0.383-0.43,0.221-1.058-0.07-1.488
			c-0.093-0.14-0.197-0.291-0.291-0.43c-0.406-0.593-0.825-1.209-1.035-1.884c-0.744-2.303-1.395-4.663-2.034-6.942l-0.221-0.779
			c-0.175-0.64-0.313-1.291-0.466-1.977c-0.069-0.326-0.139-0.663-0.221-1l-0.104-0.488l0.431,0.256
			c0.081,0.046,0.15,0.081,0.197,0.116c0.104,0.058,0.174,0.093,0.244,0.151c0.326,0.291,0.663,0.582,1,0.86
			c0.803,0.698,1.64,1.407,2.407,2.163c1.349,1.302,1.5,2.279,0.628,4.012c-0.244,0.488-0.175,1.081,0.174,1.453
			c0.35,0.372,0.977,0.523,1.373,0.314c1.268-0.674,2.465-1.314,2.965-2.732c0.081-0.221,0.303-0.407,0.697-0.593
			c0.232-0.105,0.477-0.198,0.709-0.279c0.338-0.128,0.663-0.244,0.954-0.418c1.663-0.977,2.593-2.337,2.768-4.046
			c0.069-0.64-0.222-1.14-0.768-1.337c-0.523-0.198-1.093-0.023-1.523,0.454c-0.687,0.779-1.534,1.186-2.454,1.186
			c-0.546,0-1.104-0.151-1.639-0.442c-0.512-0.279-1.047-0.628-1.651-1.082l-0.616-0.454c-2.047-1.523-4.151-3.104-6.477-4.267
			c-0.477-0.233-0.744-0.558-0.896-1.07c-0.872-2.884-1.988-5.337-3.396-7.535c-2.988-4.651-6.779-7.209-11.57-7.814
			c-0.43-0.058-0.86-0.081-1.279-0.081c-3.221,0-6,1.593-7.616,4.372c-0.058,0.093-0.116,0.186-0.198,0.302l-0.418,0.604l-0.093-0.5
			c-0.523-2.64-1.977-4.512-4.465-5.744c-1.163-0.57-2.325-0.686-3.453-0.314c-0.791,0.256-1.151,0.721-1.105,1.407
			c0.047,0.686,0.489,1.081,1.326,1.174c0.849,0.104,1.407,0.558,1.64,1.337c0.174,0.57,0.256,1.117,0.256,1.617
			c0.023,4.023,0.023,8.093,0,12.104c0,0.326-0.209,0.744-0.465,0.93c-2.035,1.442-3.628,2.884-4.872,4.442
			c-1.512,1.884-3,3.837-4.442,5.732c-0.558,0.732-1.116,1.465-1.674,2.198c-0.86,1.116-1.918,1.465-3.256,1.046
			c-0.651-0.198-1.128-0.104-1.512,0.314c-0.407,0.442-0.453,0.965-0.128,1.558c0.175,0.314,0.372,0.616,0.593,0.919
			c0.104,0.139,0.198,0.291,0.302,0.43l0.093,0.128l-0.105,0.116c-0.035,0.046-0.081,0.093-0.128,0.128
			c-0.081,0.082-0.163,0.174-0.209,0.256c-0.07,0.139-0.151,0.291-0.233,0.43c-0.221,0.407-0.43,0.802-0.5,1.209
			c-0.069,0.384,0.082,0.663,0.221,0.826c0.326,0.384,0.942,0.546,1.5,0.384C5.558,48.965,5.907,48.907,6.256,48.907z
			 M19.291,83.384c-0.395,0-0.791-0.093-1.174-0.187l-0.186-0.046c-0.232-0.059-0.407-0.372-0.43-0.569
			c-0.023-0.233,0.279-0.489,0.477-0.523c0.721-0.117,1.535-0.338,2.035-1.07c0.628-0.918,0.709-1.988,0.709-2.906V38.326
			c0-1.454,0-2.918-0.011-4.372c0-0.512,0.163-0.872,0.535-1.128l1.14-0.791c0.616-0.43,1.244-0.872,1.86-1.302
			c0.104-0.07,0.209-0.104,0.349-0.151c0.059-0.023,0.128-0.047,0.209-0.082l0.291-0.116v35.198c0,3.883,0,7.767,0,11.65
			c-0.011,2.85-2.86,5.941-5.651,6.14C19.384,83.384,19.337,83.384,19.291,83.384z M17.942,82.57
			c0.023,0.069,0.082,0.15,0.104,0.174l0.174,0.035c0.396,0.093,0.814,0.197,1.198,0.174c2.593-0.174,5.256-3.058,5.256-5.709
			c0.012-3.884,0.012-7.768,0-11.651V31.012c-0.07,0.023-0.128,0.046-0.174,0.081c-0.628,0.431-1.244,0.861-1.86,1.291l-1.14,0.791
			c-0.256,0.174-0.36,0.407-0.36,0.779c0.012,1.465,0.012,2.918,0.012,4.384v11v28.755c0,0.989-0.093,2.14-0.791,3.151
			c-0.593,0.86-1.5,1.116-2.314,1.244C18.023,82.488,17.965,82.535,17.942,82.57z M33.791,81.941L33.791,81.941h-0.174
			c-1.884-0.023-3.791-0.871-5.232-2.349c-1.442-1.465-2.244-3.372-2.209-5.221c0.023-1.604,1.035-2.651,1.779-3.302
			c0.104-0.094,0.256-0.105,0.349-0.105c0.046,0,0.093,0,0.14,0c0.035,0,0.082,0,0.116,0l0.244-0.012l0.012,0.244
			c0,0.047,0,0.105,0,0.151c0,0.151,0.012,0.325-0.082,0.466c-0.791,1.221-0.663,2.093,0.442,3c1.046,0.848,2.291,1.256,3.93,1.256
			c0.279,0,0.582-0.012,0.884-0.035c2.244-0.175,4.104-1.256,5.674-3.326c1.175-1.547,2.082-3.371,2.872-5.744
			c0.151-0.465,0.384-0.803,1.023-0.93c2.035-0.407,4.093-1.082,6.116-2c0.082-0.035,0.163-0.07,0.291-0.128l0.697-0.291
			l-0.127,0.419c-0.105,0.372-0.209,0.732-0.314,1.081c-0.197,0.71-0.395,1.384-0.604,2.046c-1.326,4.187-3,7.326-5.268,9.861
			C41.477,80.291,37.918,81.941,33.791,81.941z M28.314,71.384c-0.058,0-0.082,0.012-0.082,0.012
			c-1.104,0.953-1.604,1.884-1.628,2.988c-0.035,1.744,0.733,3.534,2.093,4.919c1.36,1.395,3.163,2.197,4.93,2.221h0.174
			c3.988,0,7.454-1.605,10.279-4.779c2.221-2.488,3.872-5.57,5.174-9.697c0.209-0.651,0.396-1.326,0.593-2.035
			c0.059-0.221,0.128-0.441,0.186-0.663c-0.058,0.023-0.116,0.047-0.163,0.069c-2.046,0.931-4.14,1.617-6.209,2.023
			c-0.407,0.082-0.569,0.232-0.709,0.651c-0.802,2.419-1.744,4.291-2.942,5.872c-1.651,2.163-3.604,3.314-5.977,3.488
			c-0.325,0.023-0.627,0.035-0.918,0.035c-1.721,0-3.093-0.441-4.209-1.349c-1.268-1.047-1.431-2.14-0.523-3.547
			c0.023-0.034,0.023-0.128,0.023-0.197C28.372,71.384,28.337,71.384,28.314,71.384z M33.396,75.372
			c-0.663,0-1.361-0.093-2.07-0.279c-0.756-0.197-1.407-0.64-1.826-0.977c-0.826-0.675-0.698-1.187-0.163-1.884
			c0.43-0.581,0.395-1.291-0.082-1.744c-0.465-0.441-1.232-0.43-1.756,0.012c-0.163,0.14-0.326,0.291-0.488,0.477
			c-0.163,0.175-0.314,0.35-0.5,0.559l-0.663,0.756v-6.768l0.268,0.069c3.058,0.849,6.163,1.268,9.477,1.268
			c1.953,0,4-0.151,6.093-0.442l0.349-0.046l-0.279,0.779c-0.104,0.278-0.186,0.534-0.291,0.79
			c-0.826,2.129-1.686,3.629-2.791,4.885C37.198,74.523,35.418,75.372,33.396,75.372z M28.407,69.732
			c0.418,0,0.825,0.163,1.139,0.453c0.64,0.594,0.698,1.559,0.14,2.303c-0.477,0.64-0.465,0.86,0.093,1.303
			c0.535,0.441,1.128,0.756,1.663,0.895c2.732,0.698,5.07-0.023,6.918-2.139c1.058-1.221,1.896-2.687,2.709-4.768
			c0.093-0.244,0.186-0.5,0.279-0.779l0.047-0.128c-1.988,0.268-3.942,0.407-5.803,0.407c-3.255,0-6.302-0.396-9.313-1.197v5.092
			c0.151-0.174,0.291-0.325,0.43-0.477c0.174-0.186,0.349-0.359,0.523-0.512C27.558,69.896,27.977,69.732,28.407,69.732z
			 M35.86,66.197c-1.291,0-2.593-0.081-3.872-0.232c-1.128-0.139-2.268-0.36-3.36-0.569c-0.651-0.128-1.291-0.256-1.942-0.36
			c-0.686-0.117-0.965-0.5-0.896-1.187c0.035-0.278,0.023-0.558,0.012-0.86c0-0.14-0.012-0.279-0.012-0.418v-0.279l0.268,0.069
			c0.396,0.104,0.791,0.222,1.174,0.325c0.826,0.232,1.605,0.466,2.407,0.617c2.64,0.512,5.046,0.768,7.349,0.768
			c3.779,0,7.186-0.675,10.419-2.082c3.396-1.465,6.453-3.64,9.349-6.65c1.059-1.094,1.441-2.198,1.186-3.373
			c-0.046-0.232-0.162-0.453-0.29-0.697c-0.081-0.163-0.163-0.326-0.233-0.5c-0.058-0.151-0.046-0.303-0.046-0.442
			c0-0.046,0-0.105,0-0.151L57.36,49.93l0.244,0.023c0.175,0.011,0.384-0.023,0.581,0.058c1.385,0.559,2.268,1.512,2.641,2.837
			c0.069,0.256,0.268,0.303,0.615,0.372c0.059,0.012,0.129,0.023,0.187,0.035c1.558,0.337,2.732,1.15,3.477,2.418
			c0.244,0.408,0.36,0.873,0.478,1.326l0.069,0.268c0.046,0.162-0.035,0.325-0.104,0.453c-0.023,0.047-0.047,0.082-0.059,0.128
			l-0.081,0.198l-0.198-0.082c-0.047-0.023-0.093-0.035-0.15-0.047c-0.141-0.046-0.303-0.08-0.419-0.209
			c-1.535-1.593-3.325-1.86-5.128-0.768c-1.174,0.71-2.303,1.559-3.396,2.361c-0.29,0.221-0.593,0.441-0.884,0.65
			c-3.709,2.721-7.744,4.547-11.988,5.431C40.744,65.93,38.256,66.197,35.86,66.197z M26.232,62.838c0,0.046,0,0.08,0,0.127
			c0.012,0.303,0.012,0.605-0.023,0.919c-0.058,0.477,0.081,0.651,0.546,0.732c0.651,0.116,1.302,0.244,1.954,0.36
			c1.093,0.209,2.209,0.431,3.325,0.57c3.582,0.43,7.326,0.244,11.117-0.547c4.186-0.872,8.163-2.674,11.825-5.36
			c0.291-0.222,0.594-0.431,0.884-0.651c1.104-0.814,2.232-1.662,3.431-2.384c1.965-1.197,3.977-0.896,5.65,0.837
			c0.035,0.035,0.141,0.07,0.232,0.094c0.023-0.047,0.07-0.128,0.07-0.151l-0.07-0.256c-0.104-0.419-0.221-0.86-0.43-1.221
			c-0.686-1.163-1.756-1.907-3.197-2.222c-0.059-0.012-0.105-0.023-0.163-0.034c-0.337-0.059-0.802-0.14-0.954-0.675
			c-0.337-1.197-1.115-2.035-2.383-2.558c-0.059-0.023-0.141-0.023-0.221-0.023c0,0.093,0,0.175,0.022,0.232
			c0.059,0.163,0.14,0.313,0.222,0.465c0.127,0.256,0.256,0.512,0.325,0.791c0.29,1.325-0.14,2.558-1.291,3.756
			c-2.942,3.046-6.046,5.256-9.488,6.744C44.326,63.803,40.86,64.5,37.023,64.5c-2.326,0-4.756-0.256-7.431-0.779
			c-0.813-0.162-1.604-0.383-2.441-0.628C26.837,63.012,26.535,62.93,26.232,62.838z M36.604,63.372L36.604,63.372
			c-3.418,0-6.779-0.558-10-1.64c-0.674-0.232-0.814-0.616-0.814-1.174c0.012-3.85,0.012-7.698,0.012-11.535v-3.326v-3.384
			c0-3.768,0-7.651-0.023-11.488c0-0.628,0.221-0.942,0.825-1.163c2.337-0.837,4.826-1.337,7.628-1.535
			c2.698-0.186,4.93-0.116,7.082,0.221c0.512,0.082,1,0.268,1.151,1.035c0.279,1.407,0.558,2.802,0.849,4.209
			c0.36,1.791,0.744,3.628,1.093,5.454c0.186,1,0.325,2.012,0.465,3C44.93,42.5,45,42.954,45.058,43.407
			c0.174,1.151,0.651,2.209,1.465,3.232l0.035,0.046c0.151,0.174,0.396,0.477,0.046,0.872c-1.174,1.314-1.512,3-1.732,4.465
			c-0.337,2.256-0.732,4.535-1.116,6.744c-0.186,1.07-0.372,2.14-0.546,3.209c-0.058,0.361-0.209,0.791-0.861,0.907
			C40.418,63.209,38.477,63.372,36.604,63.372z M36.988,28.442c-0.86,0-1.756,0.035-2.709,0.104
			c-2.768,0.198-5.221,0.686-7.512,1.512c-0.43,0.151-0.547,0.314-0.547,0.756c0.023,3.826,0.023,7.721,0.023,11.488v3.384v3.326
			c0,3.849,0,7.697-0.012,11.547c0,0.477,0.105,0.627,0.523,0.768c3.174,1.081,6.488,1.615,9.86,1.615l0,0
			c1.849,0,3.768-0.162,5.686-0.488c0.326-0.058,0.454-0.197,0.512-0.558c0.186-1.069,0.36-2.14,0.546-3.222
			c0.384-2.209,0.779-4.488,1.116-6.732c0.233-1.534,0.582-3.279,1.826-4.686c0.105-0.116,0.105-0.14-0.058-0.326l-0.035-0.046
			c-0.872-1.082-1.372-2.198-1.558-3.43c-0.07-0.454-0.128-0.907-0.186-1.372c-0.128-0.977-0.268-1.989-0.454-2.977
			c-0.349-1.814-0.721-3.663-1.093-5.442c-0.291-1.407-0.57-2.802-0.849-4.209c-0.093-0.454-0.279-0.616-0.802-0.698
			C39.907,28.546,38.512,28.442,36.988,28.442z M43.86,62.488l0.058-0.337c0.093-0.523,0.198-1.035,0.291-1.535
			c0.209-1.116,0.407-2.175,0.581-3.232c0.221-1.337,0.419-2.71,0.617-4.023c0.116-0.802,0.232-1.604,0.36-2.407
			c0.186-1.209,0.744-2.291,1.709-3.302c0.442-0.465,0.454-0.559,0.035-0.977c-1.023-1.046-1.628-2.372-1.872-4.163
			c-0.721-5.314-1.384-9.732-2.732-14.174c-0.965-3.209-2.105-5.465-3.687-7.326c-1.546-1.814-3.663-2.814-5.941-2.814
			c-0.814,0-1.64,0.128-2.442,0.395c-1.07,0.349-1.779,0.849-2.256,1.57c-0.5,0.768-0.489,1.372,0.058,2.163
			c0.116,0.174,0.128,0.384,0.14,0.57c0,0.07,0.011,0.139,0.023,0.209l0.058,0.349l-0.337-0.116
			c-0.058-0.023-0.128-0.035-0.198-0.047c-0.174-0.046-0.372-0.081-0.523-0.221c-1.488-1.279-1.965-2.93-1.418-4.896
			c0.965-3.5,4.116-5.849,7.837-5.849c0.407,0,0.814,0.023,1.221,0.082c4.535,0.616,8.128,3.081,10.977,7.511
			c2.326,3.628,3.5,7.651,4.326,11.116c0.965,4.012,2,8.093,3.094,12.151c0.406,1.523,0.977,2.663,1.79,3.558
			c0.163,0.174,0.175,0.604,0.023,0.779c-1.233,1.453-1.768,3.279-2.291,5.035l-0.116,0.371c-0.418,1.408-0.768,2.873-1.104,4.279
			l-0.21,0.873c-0.127,0.511-0.371,0.859-0.802,1.139c-2.104,1.372-4.151,2.361-6.268,3.012c-0.128,0.035-0.244,0.07-0.395,0.116
			L43.86,62.488z M33.268,17.756c2.407,0,4.64,1.058,6.267,2.965c1.617,1.907,2.779,4.209,3.768,7.477
			c1.349,4.477,2.023,8.918,2.744,14.244c0.233,1.709,0.791,2.954,1.756,3.93c0.582,0.593,0.57,0.942-0.023,1.57
			c-0.896,0.942-1.419,1.942-1.593,3.07c-0.128,0.803-0.244,1.604-0.36,2.406c-0.198,1.326-0.396,2.687-0.616,4.035
			c-0.175,1.07-0.372,2.129-0.582,3.244c-0.07,0.396-0.151,0.803-0.221,1.21c0.116-0.035,0.209-0.059,0.313-0.093
			c2.07-0.641,4.082-1.605,6.163-2.954c0.337-0.221,0.523-0.477,0.616-0.884l0.209-0.872c0.338-1.419,0.698-2.884,1.117-4.302
			l0.115-0.373c0.535-1.802,1.082-3.662,2.373-5.186c0.012-0.035,0.012-0.186-0.012-0.232c-0.85-0.942-1.454-2.128-1.885-3.721
			c-1.08-4.058-2.127-8.151-3.092-12.163c-0.826-3.43-1.977-7.407-4.279-10.988c-2.791-4.326-6.279-6.721-10.686-7.326
			c-0.384-0.058-0.779-0.082-1.163-0.082c-3.523,0-6.5,2.233-7.418,5.547c-0.5,1.791-0.059,3.291,1.291,4.465
			c0.058,0.046,0.163,0.082,0.268,0.104c-0.012-0.116-0.023-0.232-0.07-0.302c-0.64-0.93-0.663-1.721-0.07-2.628
			c0.535-0.814,1.326-1.372,2.488-1.744C31.535,17.896,32.407,17.756,33.268,17.756z M19.628,61.721L19.5,61.616
			c-0.232-0.198-0.477-0.396-0.721-0.593c-0.523-0.431-1.059-0.872-1.559-1.338c-2.186-2-3.965-4.348-5.732-6.778
			c-0.268-0.36-0.535-0.722-0.802-1.069c-0.512-0.664-1.035-1.361-1.5-2.07c-0.674-1.023-1.686-1.558-2.93-1.558
			c-0.36,0-0.721,0.046-1.104,0.128c-0.151,0.035-0.337,0.023-0.512,0c-0.07-0.012-0.128-0.012-0.198-0.023l-0.221-0.012
			l0.012-0.221c0-0.058,0-0.128,0-0.198c-0.012-0.186-0.012-0.396,0.105-0.558c0.279-0.396,0.674-0.896,1.139-1.302
			c0.209-0.175,0.303-0.314,0.303-0.419c0-0.104-0.105-0.244-0.326-0.43c-0.43-0.36-0.779-0.814-1.128-1.244l-0.058-0.07
			c-0.14-0.174-0.116-0.57,0.046-0.744c0.093-0.104,0.256-0.151,0.477-0.151c0.058,0,0.117,0,0.163,0.011
			c0.209,0.012,0.407,0.047,0.616,0.07c0.314,0.046,0.604,0.082,0.907,0.082H6.57c0.977-0.035,1.768-0.442,2.36-1.232
			c0.465-0.616,0.93-1.244,1.396-1.872c1.349-1.826,2.756-3.709,4.198-5.512c3.93-4.884,9-7.86,15.058-8.849
			c3.163-0.511,6.384-0.616,9.558-0.314c0.046,0,0.104,0.012,0.151,0.012c0.07,0,0.14,0.012,0.198,0.012
			c0.221,0.023,0.407,0.035,0.57,0.058c1.07,0.093,1.14,0.151,1.5,1.291c0.058,0.175,0.128,0.384,0.209,0.628l0.104,0.314
			l-0.326-0.035c-0.186-0.023-0.384-0.046-0.558-0.058c-0.384-0.046-0.756-0.093-1.128-0.116c-1.174-0.082-2.256-0.128-3.314-0.128
			c-4.372,0-8.128,0.721-11.488,2.221c-4.593,2.035-7.732,5.698-9.326,10.861c-0.581,1.883-1.57,3.244-3.035,4.151
			c-0.244,0.151-0.5,0.268-0.756,0.384c-0.232,0.104-0.465,0.209-0.663,0.326c-0.198,0.116-0.373,0.325-0.384,0.453
			c0.011,0.07,0.197,0.268,0.349,0.326c2.291,0.872,3.744,2.43,4.454,4.78c0.86,2.871,2.163,5.221,4,7.209
			c0.14,0.15,0.291,0.395,0.291,0.639C20.012,59.326,20,60,20,60.64v0.79L19.628,61.721z M6.268,47.779
			c1.395,0,2.523,0.604,3.279,1.755c0.465,0.698,0.977,1.383,1.488,2.047c0.268,0.359,0.547,0.721,0.803,1.08
			c1.755,2.408,3.511,4.733,5.674,6.71c0.5,0.454,1.035,0.896,1.546,1.325c0.174,0.151,0.36,0.291,0.535,0.442v-0.478
			c0-0.639,0-1.302-0.011-1.953c0-0.104-0.082-0.256-0.186-0.371c-1.884-2.035-3.221-4.442-4.105-7.373
			c-0.663-2.221-2.035-3.686-4.198-4.511c-0.267-0.105-0.651-0.454-0.627-0.756c0.023-0.302,0.325-0.616,0.593-0.779
			c0.232-0.139,0.477-0.244,0.721-0.349c0.255-0.116,0.488-0.221,0.709-0.349c1.372-0.86,2.302-2.139,2.86-3.918
			c1.628-5.291,4.849-9.035,9.57-11.116c3.419-1.512,7.233-2.256,11.663-2.256c1.07,0,2.163,0.046,3.349,0.128
			c0.384,0.023,0.756,0.07,1.151,0.116c0.081,0.012,0.151,0.023,0.232,0.023c-0.035-0.116-0.07-0.221-0.104-0.326
			c-0.291-0.93-0.291-0.93-1.14-1c-0.163-0.012-0.349-0.035-0.582-0.058c-0.058-0.012-0.116-0.012-0.186-0.012
			c-0.058,0-0.116-0.012-0.174-0.012c-3.14-0.302-6.326-0.198-9.454,0.314C23.721,27.07,18.744,30,14.884,34.802
			c-1.442,1.791-2.837,3.674-4.198,5.5c-0.465,0.628-0.93,1.244-1.396,1.872c-0.674,0.896-1.581,1.36-2.686,1.396H6.5
			c-0.326,0-0.651-0.046-0.965-0.093c-0.197-0.023-0.395-0.058-0.593-0.069c-0.046,0-0.082-0.012-0.128-0.012
			c-0.14,0-0.174,0.023-0.174,0.023c-0.012,0.023-0.023,0.151,0,0.198l0.046,0.058c0.326,0.418,0.674,0.849,1.07,1.186
			c0.232,0.198,0.465,0.442,0.465,0.744c0,0.303-0.244,0.558-0.453,0.733c-0.43,0.383-0.802,0.849-1.07,1.232
			c-0.035,0.046-0.023,0.198-0.023,0.302c0,0.012,0,0.023,0,0.035c0.012,0,0.012,0,0.012,0c0.14,0.011,0.279,0.023,0.384,0.011
			C5.477,47.826,5.884,47.779,6.268,47.779z M19.988,57.232l-0.372-0.43c-0.082-0.094-0.151-0.163-0.209-0.232
			c-0.117-0.141-0.221-0.244-0.303-0.361c-1.209-1.616-2.104-3.441-2.674-5.418c-0.604-2.128-1.791-3.687-3.604-4.768
			c-0.035-0.023-0.07-0.047-0.116-0.082l-0.337-0.232l0.43-0.291c0.105-0.07,0.198-0.139,0.291-0.198
			c1.617-1.058,2.663-2.383,3.175-4.069c0.732-2.396,1.628-4.268,2.814-5.861c0.093-0.128,0.198-0.256,0.291-0.383l0.232-0.303
			l0.407,0.175v22.453H19.988z M13.104,45.686c1.872,1.14,3.093,2.768,3.733,4.976c0.558,1.931,1.43,3.698,2.604,5.279
			c0.035,0.047,0.082,0.094,0.116,0.151V35.302c-0.058,0.07-0.104,0.14-0.163,0.209c-1.151,1.558-2.023,3.384-2.744,5.732
			c-0.547,1.779-1.64,3.186-3.349,4.302C13.244,45.593,13.174,45.64,13.104,45.686z M57.826,41.488
			c-0.117,0-0.268-0.023-0.361-0.128c-0.104-0.128-0.116-0.291-0.127-0.43c0-0.035,0-0.07-0.012-0.093
			c-0.012-0.105,0.046-0.175,0.069-0.209c0.965-1.86,0.756-3.232-0.698-4.64c-1.209-1.163-2.535-2.244-3.813-3.302l-0.732-0.604
			c-0.349-0.291-0.675-0.593-0.756-1.163c-0.047-0.36-0.14-0.721-0.244-1.139c-0.047-0.198-0.104-0.419-0.163-0.651l-0.116-0.488
			l0.431,0.268c0.29,0.174,0.558,0.337,0.813,0.488c0.535,0.314,1.035,0.604,1.5,0.942c0.813,0.57,1.628,1.163,2.419,1.732
			c0.616,0.442,1.221,0.896,1.849,1.326c0.546,0.395,1.14,0.802,1.768,1.139c1.721,0.931,3.569,0.617,4.941-0.825
			c0.116-0.117,0.268-0.186,0.396-0.233c0.047-0.023,0.105-0.035,0.151-0.058l0.209-0.104l0.081,0.221
			c0.023,0.047,0.047,0.105,0.07,0.151c0.07,0.151,0.162,0.314,0.128,0.5c-0.221,1.558-1.116,2.709-2.744,3.546
			c-0.454,0.233-0.954,0.396-1.466,0.477c-0.406,0.07-0.604,0.221-0.697,0.581c-0.395,1.407-1.512,2.117-2.65,2.663
			C58,41.477,57.896,41.488,57.826,41.488z M57.791,41.058c0.035,0,0.104,0,0.116-0.012c1.046-0.512,2.069-1.151,2.419-2.395
			c0.15-0.523,0.465-0.791,1.046-0.884c0.466-0.07,0.919-0.221,1.337-0.43c1.5-0.768,2.326-1.814,2.512-3.221
			c0.012-0.046-0.047-0.151-0.093-0.244c-0.093,0.035-0.175,0.07-0.221,0.116c-0.919,0.988-2.047,1.5-3.245,1.5
			c-0.744,0-1.488-0.198-2.209-0.593c-0.639-0.349-1.244-0.768-1.802-1.163c-0.616-0.442-1.233-0.884-1.849-1.337
			c-0.791-0.57-1.605-1.163-2.419-1.733c-0.454-0.314-0.931-0.593-1.478-0.918c-0.127-0.07-0.255-0.151-0.383-0.221
			c0.012,0.046,0.023,0.104,0.035,0.151c0.104,0.43,0.197,0.802,0.256,1.186c0.058,0.384,0.244,0.605,0.604,0.896l0.733,0.604
			c1.29,1.058,2.616,2.151,3.849,3.326c1.593,1.535,1.838,3.104,0.791,5.128l-0.023,0.046c0,0.023,0,0.035,0,0.058
			C57.779,40.954,57.779,41.023,57.791,41.058z M20.721,28.035v-3.86c0-2.628,0.012-5.349-0.023-8.023
			c-0.012-0.675-0.116-1.407-0.326-2.128c-0.279-0.989-1-1.582-2.128-1.791c-0.198-0.035-0.36-0.151-0.5-0.256
			c-0.058-0.046-0.116-0.081-0.163-0.116l-0.233-0.14l0.198-0.186c0.046-0.046,0.093-0.104,0.14-0.151
			c0.116-0.14,0.256-0.291,0.454-0.36c0.988-0.349,2.046-0.209,3.081,0.372c2.663,1.5,3.931,3.523,3.884,6.163
			c-0.046,2.256-0.023,4.558-0.012,6.779l0.012,1.081c0,0.512-0.174,0.779-0.651,0.977c-0.802,0.325-1.582,0.686-2.407,1.058
			c-0.337,0.151-0.674,0.302-1.023,0.465L20.721,28.035z M18.023,11.64c0.116,0.081,0.221,0.163,0.314,0.174
			c1.291,0.232,2.139,0.954,2.465,2.093c0.221,0.755,0.337,1.535,0.337,2.244c0.023,2.674,0.023,5.395,0.023,8.023v3.209
			c0.245-0.104,0.477-0.221,0.721-0.326c0.837-0.384,1.616-0.732,2.43-1.07c0.314-0.128,0.384-0.244,0.384-0.581l-0.012-1.082
			c-0.012-2.221-0.035-4.523,0.012-6.791c0.046-2.511-1.116-4.349-3.663-5.779c-0.93-0.523-1.86-0.651-2.732-0.349
			C18.198,11.43,18.116,11.535,18.023,11.64z M25.86,25.86v-3.802l0.372,0.396c0.116,0.128,0.233,0.256,0.349,0.372
			c0.232,0.256,0.465,0.5,0.698,0.732c0.663,0.651,1.395,0.744,1.953,0.232c0.547-0.5,0.535-1.209-0.035-1.907
			c-0.36-0.442-0.372-0.896-0.023-1.372c0.837-1.14,2.082-1.419,3.198-1.546c2.709-0.303,4.942,0.686,6.64,2.907
			c0.396,0.523,0.756,1.093,1.14,1.686c0.186,0.291,0.372,0.582,0.569,0.884l0.245,0.36l-0.442-0.035
			c-1.779-0.151-3.384-0.233-4.907-0.233c-3.488,0-6.593,0.407-9.488,1.245L25.86,25.86z M26.279,23.14v2.163
			c2.86-0.802,5.907-1.186,9.337-1.186c1.407,0,2.884,0.058,4.5,0.198c-0.116-0.186-0.232-0.36-0.337-0.535
			c-0.372-0.593-0.721-1.14-1.117-1.651c-1.593-2.104-3.697-3.035-6.244-2.744c-1.023,0.116-2.163,0.372-2.895,1.372
			c-0.233,0.326-0.233,0.558,0,0.86c0.709,0.884,0.709,1.837-0.012,2.488c-0.721,0.651-1.721,0.57-2.546-0.244
			C26.744,23.628,26.523,23.384,26.279,23.14z"/>
	</g>
	<g>
		<path fill="#3A549B" d="M88.441,58.07H82.93v-9.338H66.872v-3.779l15.687-22.256h5.895V44h4.838v4.732h-4.838v9.338H88.441z
			 M84.035,56.977h3.313V47.64h4.837v-2.547h-4.837V23.791h-4.221L67.965,45.302v2.337h16.059v9.337H84.035z M84.035,45.093H71.604
			v-0.825l8.547-11.779c1.058-1.744,1.884-3.198,2.849-5.012l0.151-0.291h1.081l-0.035,0.582c-0.104,1.779-0.162,3.581-0.162,5.349
			V45.093z M73.151,44h9.778V33.104c0-1.104,0.023-2.209,0.059-3.325c-0.604,1.093-1.209,2.128-1.906,3.291l-0.023,0.035L73.151,44z
			"/>
		<path fill="#3A549B" d="M88.662,58.279h-5.941v-9.337H66.651v-4.058l15.79-22.396h6.221v21.302H93.5v5.151h-4.838V58.279z
			 M83.14,57.86h5.093v-9.337h4.838v-4.314h-4.838V22.907h-5.57l-15.58,22.116v3.5H83.14V57.86z M87.559,57.186h-3.744v-9.337
			H67.756v-2.616l15.268-21.651h4.535v21.302h4.837v2.965h-4.837V57.186z M84.244,56.768h2.884V47.43h4.849v-2.128H87.14V24h-3.896
			L68.186,45.372v2.058h16.059V56.768z M84.244,45.302h-12.86v-1.104l8.593-11.837c1.047-1.732,1.872-3.174,2.826-4.988l0.209-0.407
			h1.43l-0.046,0.802c-0.104,1.767-0.163,3.57-0.163,5.337v12.198H84.244z M71.814,44.884h12V33.104c0-1.779,0.058-3.581,0.162-5.36
			L84,27.396h-0.721l-0.094,0.174c-0.965,1.826-1.79,3.279-2.848,5.023l-8.512,11.745v0.546H71.814z M83.14,44.209H72.732
			l8.175-11.256c0.709-1.163,1.313-2.209,1.907-3.268l0.43-0.779l-0.035,0.883c-0.035,1.105-0.058,2.221-0.058,3.314v11.105H83.14z
			 M73.57,43.791h9.15V33.104c0-0.814,0.012-1.639,0.035-2.453c-0.465,0.814-0.941,1.639-1.488,2.535l-0.035,0.046L73.57,43.791z"/>
	</g>
</g>
<g>
	<g>
		<path fill="#F4D040" d="M11.232,85.593c0.105-0.034,0.221-0.069,0.326-0.116c-0.07,0.175-0.268,0.361-0.535,0.559
			c1.558-0.721,2.93-1.791,4.116-2.942s2.186-2.419,2.86-3.534c0.779-0.5,1.256-1.187,1.035-1.559
			c-0.221-0.372-1.058-0.279-1.872,0.232c-0.209,0.082-0.43,0.197-0.604,0.232c-0.396,0.07-0.802,0.175-1.221,0.291
			c-0.407,0.128-0.826,0.268-1.256,0.43c-0.43,0.163-0.849,0.35-1.279,0.559s-0.872,0.418-1.302,0.674
			c0.186-0.069,0.384-0.15,0.582-0.221c0.198-0.069,0.395-0.139,0.581-0.209c-0.511,0.256-1.023,0.535-1.5,0.919
			c0.117,0.011,0.233,0.011,0.349,0.022c-0.244,0.105-0.477,0.222-0.709,0.35c-0.232,0.139-0.465,0.279-0.686,0.441
			c-0.221,0.163-0.442,0.326-0.64,0.512c-0.209,0.175-0.395,0.372-0.581,0.57c-0.733,0.768-1.221,1.639-1.349,2.349
			c-0.116,0.732,0.163,1.175,0.698,1.313c0.268,0.07,0.582,0.07,0.954-0.012C9.57,86.372,9.988,86.232,10.43,86
			c0,0,0.198-0.093,0.407-0.197C11.035,85.686,11.232,85.593,11.232,85.593z"/>
	</g>
	<g>
		<path fill="#F4D040" d="M15.721,85.082c-1.011,0.465-2,0.918-3,1.406l-0.267,0.047l0.604,0.383l-0.023-0.034
			c0.058-0.244,0.163-0.512,0.303-0.779c0.07-0.14,0.151-0.267,0.232-0.407c0.093-0.139,0.186-0.268,0.279-0.406
			c0.198-0.268,0.419-0.547,0.663-0.826c0.244-0.268,0.488-0.523,0.732-0.779c0,0,0.082-0.093,0.163-0.197
			c0.081-0.093,0.163-0.197,0.163-0.197c0.128-0.209,0.163-0.407,0.093-0.535c-0.07-0.151-0.255-0.209-0.488-0.174
			c-0.116,0.011-0.256,0.046-0.384,0.104c-0.139,0.059-0.279,0.141-0.418,0.232l-0.651,0.466c-0.441,0.232-0.918,0.558-1.383,0.907
			c-0.465,0.349-0.907,0.768-1.291,1.174c-0.384,0.419-0.698,0.861-0.907,1.279c-0.209,0.418-0.291,0.838-0.232,1.197
			c0.058,0.326,0.488,0.373,0.791,0.523c0.163,0.151,0.454,0.163,0.791,0.059c0.163-0.059,0.337-0.14,0.512-0.244
			c0.174-0.105,0.36-0.244,0.535-0.396c0.686-0.628,1-1.372,0.686-1.698c0.14-0.081,0.291-0.174,0.431-0.268
			c-0.047,0.117-0.093,0.233-0.151,0.361c-0.058-0.209,0.046-0.488,0.221-0.756c0.175-0.279,0.396-0.57,0.559-0.85
			c0,0,0.035-0.046,0.104-0.104c0.058-0.07,0.14-0.152,0.221-0.232C14.768,84.162,14.93,84,14.93,84s-0.302-0.093-0.616-0.174
			c-0.302-0.094-0.616-0.175-0.616-0.175s-0.07,0.104-0.14,0.209s-0.14,0.21-0.14,0.21c0.07,0,0.174,0,0.174,0.012
			c-0.255,0.406-0.5,0.802-0.744,1.209c-0.244,0.406-0.511,0.802-0.825,1.221l-0.628,1.15c-0.047,0.187,0,0.314,0.116,0.385
			c0.116,0.058,0.291,0.058,0.5-0.012l0.593-0.256c-0.104,0.035-0.197,0.069-0.291,0.093c0.291-0.198,0.57-0.396,0.849-0.593
			c0.279-0.197,0.57-0.396,0.861-0.582c0.139-0.093,0.291-0.197,0.43-0.29c0.151-0.093,0.291-0.187,0.43-0.279
			c0.291-0.187,0.582-0.36,0.872-0.523c0.198-0.093,0.349-0.278,0.349-0.419C16.082,85,15.918,84.977,15.721,85.082z"/>
	</g>
	<g>
		<g>
			<path fill="#F4D040" d="M12.418,88.256c-0.221,0.093-0.43,0.197-0.628,0.418c-0.011,0.082-0.011,0.117-0.023,0.141
				c0.116-0.047,0.279-0.117,0.442-0.187C12.535,88.488,12.558,88.338,12.418,88.256z"/>
		</g>
		<g>
			<path fill="#F4D040" d="M11.779,88.814c-0.117,0.046-0.187,0.081-0.187,0.081c0.059-0.012,0.117-0.012,0.163-0.023
				c0.012-0.023,0.012-0.034,0.012-0.034S11.779,88.849,11.779,88.814z"/>
		</g>
		<g>
			<path fill="#F4D040" d="M61.221,62.941c4.082-0.662,8.163-1.186,12.187-1.569c0.14-0.012,0.244-0.069,0.244-0.128
				s-0.116-0.093-0.233-0.082c-4.034,0.385-8.104,0.896-12.197,1.559c-0.139,0.023-0.232,0.094-0.244,0.151
				C60.977,62.941,61.094,62.965,61.221,62.941z"/>
		</g>
		<g>
			<path fill="#F4D040" d="M91.279,65.582c-0.094,0.046-0.082,0.115,0.012,0.15c0.081,0.035,0.221,0.035,0.313-0.023
				c0.069-0.047,0.069-0.116-0.012-0.15C91.5,65.523,91.36,65.547,91.279,65.582z"/>
		</g>
		<g>
			<path fill="#F4D040" d="M90.709,70.407c-0.523,0.116-1.012,0.244-1.441,0.431c-0.082,0.034-0.175,0.022-0.244,0.011
				c0.035,0.093-0.059,0.187-0.244,0.244c-3.651,1.023-7.559,1.628-11.303,2.478c-0.012,0.081-0.059,0.162-0.128,0.244
				c-0.232,0.278-0.732,0.465-1.278,0.477l-0.419-0.012c-0.419,0.012-0.837,0.035-1.244,0.059c-0.419,0.022-0.825,0.046-1.245,0.069
				c-0.418,0.022-0.824,0.046-1.244,0.081c-0.418,0.023-0.825,0.047-1.244,0.082c-0.15,0.081-0.325,0.15-0.512,0.221
				c-0.186,0.069-0.371,0.127-0.58,0.174c-0.664,0.279-1.326,0.535-1.989,0.803c-0.651,0.268-1.313,0.535-1.988,0.779
				c0.104,0.046,0.175,0.115,0.198,0.209c0.012,0.104-0.047,0.209-0.163,0.303c-0.116,0.093-0.279,0.162-0.466,0.197
				c-0.186,0.047-0.371,0.093-0.558,0.14c0.546-0.069,1.093-0.14,1.651-0.187c0.081-0.012,0.15-0.012,0.221-0.012
				c0.594-0.104,1.186-0.232,1.803-0.359c2.65-0.582,5.256-1.198,7.849-1.861c2.651-0.662,5.256-1.325,7.849-1.977
				c0.082-0.035,0.221-0.047,0.303,0c0.058,0.047,0.047,0.116-0.047,0.151c-0.406,0.163-0.814,0.325-1.209,0.5
				C82.64,73.826,82.256,74,81.86,74.186c-0.768,0.361-1.534,0.722-2.29,1.082s-1.535,0.709-2.326,1.047
				c-0.791,0.337-1.628,0.639-2.488,0.941c-0.512,0.174-1.035,0.349-1.547,0.512c-0.512,0.174-1.012,0.349-1.523,0.523l-0.756,0.256
				l-0.744,0.268c-0.5,0.174-0.988,0.348-1.488,0.523c-0.488,0.186-0.977,0.359-1.465,0.546c-0.244,0.093-0.488,0.175-0.732,0.268
				s-0.477,0.187-0.721,0.278c-0.477,0.187-0.965,0.373-1.441,0.547c-0.478,0.186-0.954,0.384-1.431,0.57
				c-0.256,0.069-0.523,0.127-0.779,0.197s-0.512,0.151-0.756,0.221c-0.5,0.151-1,0.314-1.488,0.477
				c-1.023,0.35-2.046,0.744-3.046,1.151c-2,0.814-3.954,1.733-5.978,2.687c-2.709,1.303-5.302,2.547-7.768,3.825
				c-1.232,0.64-2.441,1.279-3.616,1.931c-1.174,0.662-2.314,1.325-3.418,2.023c-0.198,0.15-0.396,0.279-0.604,0.395
				c-0.198,0.117-0.407,0.221-0.628,0.314c-0.43,0.174-0.849,0.303-1.279,0.36s-0.826,0.058-1.209,0
				c-0.372-0.058-0.721-0.198-1.012-0.396c-0.698-0.488-0.872-1.291-0.535-2.15c-0.139,0.092-0.279,0.186-0.418,0.278
				c0,0-0.186,0.081-0.384,0.175c-0.093,0.047-0.186,0.081-0.256,0.116c-0.07,0.034-0.116,0.058-0.116,0.058
				c-0.349,0.163-0.721,0.279-1.082,0.35c-0.349,0.069-0.697,0.093-1.023,0.058c0,0-0.209-0.012-0.43-0.023
				c-0.209-0.011-0.43-0.022-0.43-0.022c-1.372-0.256-3-0.059-4.349-0.326l-0.232-0.36l-0.209,0.023
				c-0.616,0.14-1.198,0.128-1.628-0.059L19.849,92.5c-0.395-0.441-0.639-0.953-0.732-1.57c-0.186-0.127-0.314-0.29-0.384-0.5
				c-0.698-0.081-1.267-0.29-1.523-0.871c-0.291,0.069-0.442-0.105-0.337-0.373c0.035-0.092,0.104-0.186,0.186-0.278l0,0
				c-0.198,0-0.268,0-0.512,0.034c-0.209,0.129-0.337,0.21-0.337,0.21c-0.268,0.187-0.407,0.278-0.523,0.372
				c-0.128,0.093-0.244,0.174-0.477,0.337c-0.244,0.116-0.477,0.187-0.64,0.222c-0.163,0.046-0.268,0.058-0.268,0.058
				c-1.14-0.151-1.14-0.151-1.407-0.442c-0.012-0.046-0.012-0.093-0.023-0.139c-0.418,0.244-0.442,0.256-0.558,0.313
				c-0.151,0.046-0.279,0.058-0.279,0.058c-0.197-0.104-0.197-0.104-0.314-0.092c-0.081-0.035-0.151-0.082-0.151-0.082
				c-0.023-0.314-0.023-0.314-0.082-0.36c-0.012-0.081,0-0.163,0-0.163c0.14-0.256,0.198-0.349,0.232-0.395
				c0.896-0.129,0.896-0.129,0.896-0.129C12.558,88.5,12.558,88.5,12.558,88.5c0.314,0.047,0.314,0.047,0.314,0.047
				c-0.256-0.082-0.256-0.082-0.256-0.082c0.337-0.139,0.337-0.139,0.337-0.139c-0.43,0.127-0.43,0.127-0.43,0.127
				c0.604-0.477,0.604-0.477,0.814-0.686c0.244-0.197,0.395-0.407,0.418-0.441c-0.082-0.023-0.116-0.059-0.116-0.059
				c0.337-0.244,0.5-0.36,0.663-0.488c0.163-0.117,0.326-0.232,0.663-0.453c0.093-0.012,0.174-0.023,0.255-0.023
				c0.012-0.094,0.093-0.21,0.221-0.303c0.116-0.082,0.232-0.162,0.337-0.244c0.011-0.023,0.023-0.059,0.046-0.082
				c-0.012-0.012-0.012-0.012-0.012-0.012c0.07-0.115,0.128-0.197,0.186-0.29c0.035-0.058,0.035-0.058,0.035-0.058l0,0
				c0.128-0.198,0.303-0.5,0.814-1.256c0.209-0.129,0.419-0.244,0.617-0.35c-0.082,0.023-0.151,0.035-0.233,0.047
				c-0.151,0.023-0.209-0.186-0.279-0.151c-1.674,0.768-3.279,1.884-4.837,3.047c-0.221,0.256-0.558,0.407-0.721,0.337
				c-0.175-0.07-0.116-0.337,0.116-0.593c0.965-1.687,2.465-3.268,4.198-4.593c1.744-1.326,3.721-2.385,5.651-3.105
				c0.942-0.477,1.872-0.941,2.814-1.395c-0.058,0-0.128,0-0.186,0c0.268-0.094,0.523-0.198,0.779-0.291
				c0.023-0.012,0.058-0.023,0.081-0.035c-0.256,0-0.5,0.012-0.744,0.023c-0.139,0.047-0.291,0.082-0.43,0.128
				c-2.151,1.104-4.372,1.872-6.582,3.012c-0.593,0.302-1.163,0.569-1.755,0.813c-0.582,0.268-1.151,0.512-1.733,0.814
				c-0.267,0.186-0.535,0.244-0.616,0.116c-0.082-0.116,0.082-0.384,0.337-0.569c1.535-1.396,3.337-2.698,5.209-3.721
				c1.872-1.023,3.791-1.756,5.558-2.059c0.314-0.175,0.64-0.326,0.977-0.453c0.326-0.117,0.651-0.21,0.977-0.256
				c0.012,0,0.023-0.012,0.035-0.012c-0.198-0.012-0.372-0.023-0.57-0.023c0.523-0.197,0.918-0.14,1.418-0.291
				c-0.128-0.082-0.268-0.162-0.407-0.244c2.5-1.047,5.011-2.396,7.535-2.884c0.093-0.034,0.186-0.058,0.279-0.081
				c0.407-0.326,0.814-0.663,1.267-0.977c0.454-0.303,0.942-0.605,1.512-0.861c-0.407,0.117-0.802,0.244-1.221,0.373
				c0.744-0.512,1.523-0.954,2.418-1.291c1.221-0.465,2.593-0.826,3.872-0.988c1.279-0.163,2.465-0.14,3.326,0.104
				c2.326-0.872,4.674-1.687,7.047-2.466L53,65.035l0.465-0.14l0.919-0.291l0.919-0.29c0.302-0.094,0.615-0.198,0.93-0.279
				l1.86-0.547c0.313-0.093,0.616-0.186,0.931-0.268l0.93-0.256c0.256-0.069,0.512-0.047,0.594,0.059
				c0.058,0.104-0.082,0.256-0.338,0.325c-0.43,0.151-0.871,0.291-1.303,0.442c-0.43,0.15-0.871,0.303-1.302,0.453
				c-0.442,0.151-0.872,0.291-1.313,0.441c-0.431,0.152-0.873,0.314-1.303,0.466c-1.768,0.616-3.418,1.221-5.116,1.849
				c0.732-0.186,1.477-0.349,2.221-0.535c0.372-0.081,0.745-0.174,1.116-0.256l0.279-0.069l0.291-0.058l0.569-0.129
				c0.768-0.174,1.523-0.349,2.303-0.523c0.767-0.162,1.534-0.336,2.313-0.512c0.384-0.115,0.779-0.221,1.175-0.324
				c0.384-0.105,0.79-0.164,1.187-0.198c3.953-0.849,7.721-1.407,11.709-2.21c3.406-0.674,6.383-1.221,9.744-1.848
				c4.721-0.861,8.988-1.582,13.535-1.779c0.604-0.059,1.174,0.127,1.256,0.418c0.081,0.291-0.35,0.582-0.942,0.651
				c-4.722,0.663-9.477,1.396-14.337,2.14c-4.907,0.756-9.861,1.523-14.965,2.314c-0.559,0.092-1.105,0.174-1.664,0.267
				l-0.406,0.069l-0.407,0.07c-0.278,0.047-0.546,0.094-0.813,0.151c0.023,0.034,0.047,0.069,0.058,0.116
				c0.035,0.162-0.022,0.326-0.163,0.477c0.314-0.047,0.617-0.093,0.931-0.15c0.313-0.047,0.616-0.094,0.931-0.129
				c0.627-0.081,1.256-0.15,1.883-0.209c3.373-0.906,6.814-1.686,10.5-1.872c0.314-0.012,0.629-0.023,0.942-0.034
				c0.313-0.012,0.616,0,0.919,0c0.604,0,1.209,0.022,1.803,0.046c0.592,0.023,1.174,0.058,1.755,0.104
				c0.581,0.035,1.163,0.082,1.745,0.128c2.895-0.384,5.767-0.756,8.674-1.046c0.116-0.023,0.232,0,0.279,0.058
				s-0.012,0.116-0.129,0.14c-1.977,0.453-4.022,0.837-6.08,1.209c0.336,0.163,0.546,0.396,0.534,0.663
				c-0.012,0.278-0.244,0.534-0.628,0.721l1.407-0.058c0.29-0.012,0.522,0.081,0.522,0.221c0,0.15-0.221,0.268-0.5,0.279
				c-0.953,0.046-1.906,0.081-2.859,0.139l-1.431,0.07l-1.431,0.082c-2.279,0.313-4.558,0.65-6.837,0.988
				c0.337,0.15,0.604,0.348,0.744,0.581l0,0c0.349-0.047,0.71-0.081,1.058-0.128c3.187-0.697,6.442-1.221,9.733-1.594
				c3.29-0.371,6.604-0.581,9.919-0.65c0.127-0.012,0.244,0.035,0.244,0.104c0,0.058-0.094,0.116-0.21,0.116
				c-2,0.035-4,0.128-6,0.279c0,0,0,0,0.012,0c0.081,0.035,0.104,0.104,0.012,0.15c-0.069,0.047-0.232,0.047-0.313,0.023
				c-0.094-0.035-0.094-0.104-0.012-0.15c-3.721,0.279-7.419,0.768-11.023,1.453c3.383-0.35,6.779-0.594,10.162-0.651
				c0.361-0.093,0.732-0.198,1.105-0.29c0.104-0.023,0.232,0.012,0.279,0.069c0.034,0.046-0.047,0.116-0.141,0.14
				c-0.104,0.023-0.209,0.047-0.302,0.069c0.64-0.011,1.151,0.233,1.151,0.559c-0.023,0.337-0.559,0.616-1.221,0.64
				c-0.885,0.069-1.768,0.139-2.652,0.209c-0.883,0.07-1.767,0.128-2.65,0.197l-0.57,0.094C86,67.872,85.814,67.93,85.616,68
				c2.756-0.059,5.5-0.035,8.232,0.012c0.233-0.012,0.442,0.07,0.442,0.186c0.012,0.117-0.175,0.221-0.407,0.232
				c-2.384,0.35-4.791,0.664-7.175,0.978c-2.395,0.313-4.791,0.628-7.174,0.953c-0.756,0.325-1.512,0.651-2.268,0.988
				c-0.744,0.337-1.488,0.675-2.244,1.012c0.197-0.011,0.406-0.034,0.604-0.058c0.64-0.07,1.268-0.163,1.872-0.279
				c0.616-0.105,1.221-0.221,1.814-0.35c0.302-0.069,0.592-0.127,0.895-0.197c0.303-0.069,0.594-0.128,0.884-0.197
				c0.593-0.14,1.175-0.291,1.768-0.431c2.349-0.569,4.71-1.151,7.256-1.431c0.128-0.022,0.232,0.023,0.256,0.082
				c0.012,0.059-0.069,0.116-0.198,0.128c-1.244,0.163-2.418,0.396-3.592,0.663c-1.176,0.256-2.326,0.558-3.535,0.813
				c-1,0.222-1.965,0.442-2.907,0.675c-0.942,0.244-1.86,0.488-2.756,0.779c3.744-0.547,7.36-1.419,11.187-1.919
				c0.162-0.035,0.336-0.012,0.441,0.034c0.012-0.034,0.035-0.069,0.093-0.08c0.466-0.187,0.988-0.326,1.523-0.454
				c0.104-0.035,0.232-0.012,0.29,0.046C90.884,70.303,90.826,70.36,90.709,70.407z M23.64,82.256c-0.047,0-0.093,0-0.128,0
				c0.116-0.035,0.244-0.059,0.372-0.094c0,0,0,0,0.732,0.117C24.616,82.268,24.128,82.268,23.64,82.256z M20.035,87.082
				L20.035,87.082c-0.244-0.012-0.418-0.023-0.418-0.023C19.779,87.059,19.918,87.07,20.035,87.082z M52.896,66.779
				c-2.069,0.604-4.14,1.15-6.279,1.569c0.488-0.187,0.965-0.384,1.454-0.569C49.651,67.396,51.268,67.07,52.896,66.779z
				 M18.896,83.256c0.325-0.082,0.628-0.128,0.93-0.151c0.302-0.022,0.593-0.034,0.872-0.034c0.256-0.256,0.558-0.5,0.895-0.71
				c0.896-0.569,1.803-1.069,2.709-1.534c-0.221-0.07-0.012-0.175,0.082-0.256c0.104-0.082,0.198-0.152,0.291-0.232
				c-0.5,0.232-1,0.465-1.5,0.709c-0.256,0.115-0.5,0.244-0.756,0.36s-0.5,0.255-0.756,0.372c-0.232,0.116-0.465,0.232-0.697,0.36
				c-0.233,0.128-0.465,0.256-0.698,0.384c-0.233,0.128-0.465,0.256-0.698,0.372C19.36,83.035,19.128,83.151,18.896,83.256z
				 M13.604,88.616c-0.035,0.012-0.081,0.012-0.116,0.023c0,0,0,0-0.07-0.302C13.407,88.338,13.488,88.453,13.604,88.616z
				 M13.744,89.116c0.046-0.023,0.093-0.058,0.14-0.081C13.93,89.128,13.86,89.14,13.744,89.116z M15.035,88.338
				c-0.116,0.011-0.186,0.022-0.267,0.046C15.035,88.338,15.035,88.338,15.035,88.338z M21.965,92.651c0,0-0.175-0.291-0.349-0.581
				c-0.174-0.291-0.337-0.582-0.337-0.582s0.151,0.291,0.302,0.582c0.151,0.29,0.314,0.581,0.314,0.581H21.965z"/>
		</g>
	</g>
</g>
<g>
	<path fill="#231F20" d="M32.256,84.221c-0.465,1.64-1.442,2.941-2.36,4.279c-0.198,0.314-0.582,0.535-0.988,0.674
		c-0.791,0.268-1.733,0.187-1.907-0.325l-0.209-0.593c-0.57-1.628-1.128-2.651-1.825-4.407c-0.512-1.278-1.186-1.884-2.256-2.802
		c-0.302-0.268-0.535-0.594-0.651-0.919c-0.174-0.512-0.07-1.023,0.43-1.36c0.709-0.465,1.326-0.768,1.93-0.977
		c1.233-0.419,2.384-0.396,3.884-0.129c2.128,0.361,3.442,1.478,3.977,2.989C32.651,81.662,32.628,82.907,32.256,84.221z
		 M29.756,79.396c-1.302-0.593-2.616-0.86-4.326-0.547c-0.268,0.059-0.488,0.093-0.628,0.14c-0.349,0.116-0.418,0.279-0.314,0.57
		c0.035,0.093,0.093,0.209,0.163,0.337c1.383,2.802,2.128,4.453,3.151,7.407c0.116,0.349,0.651,0.441,1.093,0.29
		c0.163-0.058,0.314-0.163,0.43-0.302c1.163-1.419,1.546-2.629,2.058-4.431c0.116-0.431,0.093-1.081-0.128-1.732
		C31,80.418,30.523,79.744,29.756,79.396z"/>
	<path fill="#231F20" d="M40.732,83.453c-0.163,0.5-0.395,0.779-0.744,0.896c-0.442,0.151-1.046,0.081-1.872-0.081
		c-1.396-0.256-3.128-1.57-3.849-3.36c-0.128-0.325-0.244-0.64-0.337-0.919c-0.465-1.337-0.64-2.314-1.07-3.837
		c-0.081-0.291,0.093-0.454,0.349-0.547c0.314-0.104,0.779-0.069,0.988,0.116c0.302,0.279,0.604,0.547,0.709,0.861
		c0.069,0.197,0.058,0.406-0.023,0.639c-0.104,0.291-0.046,1.396,0.337,2.5c0.209,0.605,0.523,1.209,0.954,1.663
		c0.884,0.954,2.43,1.988,3.07,1.768c0.035-0.012,0.07-0.047,0.082-0.047c0.732-0.442,0.837-1.687,1.012-2.813
		c0.197-1.326,0.163-2.338-0.198-3.361c-0.198-0.558-0.488-1.127-0.872-1.732c-0.035-0.046-0.058-0.093-0.07-0.127
		c-0.093-0.279,0.093-0.454,0.349-0.547c0.291-0.105,0.651-0.082,0.826,0.069c0.302,0.268,0.546,0.675,0.721,1.175
		C41.744,77.628,41.546,80.791,40.732,83.453z"/>
	<path fill="#231F20" d="M54.047,79.349c-0.163,0.059-0.419,0.035-0.756-0.163c-1.314-0.744-2-2.604-3.268-4.302
		c-0.128-0.175-0.326-0.466-0.489-0.407c-0.069,0.023-0.151,0.151-0.209,0.419c-0.198,1.022-0.244,1.628-0.802,2.558
		c-0.209,0.35-0.442,0.651-0.768,0.768c-0.244,0.082-0.535,0.059-0.918-0.15c-0.535-0.291-0.826-0.547-1.396-0.814
		c-0.151-0.082-0.268-0.116-0.337-0.082c-0.093,0.035-0.104,0.164-0.023,0.466c0.046,0.187,0.104,0.372,0.174,0.546
		c0.244,0.71,0.558,1.373,0.756,1.954c0.128,0.36,0.198,0.687,0.186,0.953c-0.023,0.303-0.326,0.687-0.616,0.779
		c-0.221,0.081-0.43,0.023-0.547-0.313c-0.383-1.105-0.663-2.035-0.965-2.919c-0.512-1.488-1.07-2.791-2.116-4.442
		c-0.035-0.046-0.046-0.081-0.058-0.104c-0.105-0.29,0.128-0.534,0.418-0.64c0.221-0.081,0.477-0.069,0.663,0.105
		c1.349,1.313,2.268,2.115,3.965,2.849c0.221,0.093,0.442,0.14,0.628,0.081c0.163-0.059,0.302-0.209,0.384-0.5
		c0.372-1.326,0.209-2.116,0.663-3.441c0.082-0.232,0.256-0.385,0.465-0.454c0.291-0.104,0.628-0.034,0.872,0.256
		c1.814,2.198,2.454,3.756,4.302,5.86c0.035,0.047,0.082,0.117,0.104,0.187C54.453,78.756,54.396,79.232,54.047,79.349z"/>
	<path fill="#231F20" d="M64.907,75.628c-0.163,0.058-0.419,0.034-0.756-0.163c-1.313-0.744-2-2.604-3.268-4.303
		c-0.128-0.174-0.325-0.465-0.488-0.406c-0.069,0.023-0.151,0.151-0.21,0.418c-0.197,1.023-0.244,1.629-0.802,2.559
		c-0.21,0.35-0.442,0.651-0.768,0.768c-0.244,0.082-0.534,0.059-0.919-0.151c-0.535-0.29-0.825-0.546-1.395-0.813
		c-0.151-0.082-0.268-0.117-0.338-0.082c-0.093,0.035-0.104,0.163-0.023,0.465c0.047,0.187,0.105,0.373,0.175,0.547
		c0.244,0.709,0.558,1.373,0.756,1.953c0.128,0.361,0.198,0.687,0.187,0.954c-0.023,0.302-0.326,0.687-0.617,0.779
		c-0.221,0.081-0.43,0.022-0.546-0.313c-0.384-1.105-0.663-2.035-0.966-2.92c-0.512-1.488-1.069-2.79-2.115-4.441
		c-0.035-0.047-0.047-0.081-0.059-0.104c-0.104-0.29,0.128-0.534,0.418-0.64c0.222-0.081,0.478-0.07,0.664,0.105
		c1.348,1.313,2.267,2.115,3.965,2.848c0.221,0.094,0.441,0.141,0.627,0.082c0.164-0.059,0.303-0.209,0.385-0.5
		c0.371-1.326,0.209-2.116,0.662-3.441c0.082-0.233,0.256-0.385,0.465-0.454c0.291-0.104,0.629-0.034,0.873,0.256
		c1.813,2.198,2.453,3.756,4.313,5.86c0.034,0.047,0.081,0.116,0.104,0.186C65.314,75.035,65.256,75.512,64.907,75.628z"/>
	<path fill="#231F20" d="M68.826,73.162c0.139,0.454-0.5,0.931-1.094,1.129c-0.441,0.15-0.86,0.15-0.953-0.129
		c-0.744-2.197-1.023-4.244-1.803-6.522c-0.244-0.698-0.569-1.396-0.872-2.151v-0.012c-0.093-0.209,0.222-0.662,0.593-0.791
		c0.187-0.058,0.385-0.034,0.535,0.129c0.256,0.244,0.547,0.977,0.872,1.93c0.535,1.547,1.163,3.697,1.768,5.441l0.069,0.21
		c0.163,0.477,0.756,0.349,0.873,0.732L68.826,73.162z"/>
	<path fill="#231F20" d="M79.162,70.209c-2.232,1.594-3.848,2.663-6.174,3.523l-0.059,0.023c-0.395,0.151-0.895,0.104-1.034-0.291
		l-0.012-0.012c-0.477-1.5-0.675-2.65-1.104-3.895c-0.117-0.326-0.232-0.675-0.407-1.047c-0.104-0.244-0.232-0.488-0.523-0.441
		c-0.663,0.104-0.988-0.047-1.069-0.291c-0.117-0.35,0.209-0.884,0.628-1.209c0.186-0.141,0.151-0.35,0.093-0.547
		c-0.035-0.094-0.047-0.209-0.082-0.303c-0.058-0.186-0.139-0.36-0.209-0.559c-0.047-0.15-0.244-0.115-0.406-0.115
		c-0.768,0-1.082-0.187-1.175-0.477c-0.081-0.244-0.012-0.57,0.046-0.861c0.105-0.512,0.198-1.209,0.675-1.371
		c0.116-0.035,0.256-0.047,0.407-0.023c0.465,0.081,0.838,0.15,1.314-0.012l0.115-0.035c0.687-0.291,1.256-0.5,1.803-0.697
		c0.686-0.232,1.36-0.431,2.256-0.698c0.43-0.128,0.721,0.069,0.814,0.325c0.104,0.303-0.035,0.675-0.454,0.838l-0.313,0.104
		c-0.698,0.244-1.314,0.396-1.896,0.593c-0.558,0.186-1.093,0.43-1.687,0.814c-0.221,0.15-0.593,0.197-0.477,0.535
		c0.105,0.313,0.221,0.58,0.338,0.895c0.046,0.151,0.092,0.338,0.162,0.523l0.012,0.035c0.128,0.36,0.36,0.337,0.663,0.256
		c1.884-0.535,3.034-1.023,4.941-0.884c0.313,0.022,0.5,0.128,0.547,0.255c0.058,0.187-0.151,0.442-0.64,0.605
		c-0.07,0.023-0.151,0.047-0.244,0.07c-1.663,0.383-2.814,0.778-4.232,1.267c-0.221,0.081-0.372,0.313-0.314,0.512
		c0.221,0.988,0.384,1.71,0.697,2.616c0.117,0.35,0.256,0.721,0.442,1.163c0.14,0.36,0.523,0.558,0.942,0.453
		c0.441-0.116,0.849-0.232,1.221-0.36c1.453-0.5,2.593-1.104,4.012-1.837l0.069-0.023c0.222-0.081,0.384,0.034,0.442,0.198
		C79.349,69.93,79.314,70.104,79.162,70.209z"/>
	<path fill="#231F20" d="M88,67.5c-0.279,0.209-0.593,0.372-0.941,0.488c-1.373,0.465-3.268,0.291-5.059-0.059
		c-0.372-0.069-0.559-0.174-0.593-0.29c-0.059-0.163,0.151-0.349,0.431-0.442c0.162-0.058,0.371-0.069,0.558-0.058
		c1.581,0.14,2.698,0.256,4.058-0.21c0.198-0.069,0.419-0.162,0.651-0.256c0.466-0.209,0.569-0.639,0.442-1
		c-0.07-0.197-0.187-0.359-0.373-0.465c-1.778-1.035-5.825,0.314-7.604-0.127c-0.908-0.222-1.326-0.559-1.454-0.92
		c-0.175-0.5,0.175-1.034,0.628-1.453c1.535-1.43,4.174-3.581,5.838-4.15c0.592-0.198,1.046-0.198,1.313,0.081
		c0.104,0.128,0.232,0.313,0.29,0.488c0.105,0.29,0.082,0.593-0.29,0.721c-0.116,0.035-0.268,0.059-0.478,0.059
		c-0.221,0-0.65,0.081-1.115,0.232c-0.373,0.128-0.768,0.302-1.105,0.522c-1.139,0.756-1.906,1.303-3.035,2.222
		c-0.336,0.278-0.488,0.442-0.441,0.569c0.035,0.117,0.256,0.209,0.594,0.338c0.871,0.313,5.686-0.709,7.756,0.558
		c0.477,0.303,0.756,0.64,0.883,0.989C89.209,66.104,88.732,66.93,88,67.5z"/>
</g>
</svg>
